<svg width="556" height="469" viewBox="0 0 556 469" fill="none" xmlns="http://www.w3.org/2000/svg">
<path d="M493.632 175.051C478.15 195.443 452.12 207.557 424.924 207.557C380.735 207.557 341.44 174.016 341.44 130.124C341.44 93.918 361.358 67.9522 388.773 55.9994C396.311 52.7278 404.277 50.5216 412.429 49.4448C416.573 48.8899 420.748 48.6124 424.924 48.6135C435.606 48.6135 446.185 50.7079 456.055 54.7767C485.303 66.7947 506.585 95.1149 508.063 128.086C508.886 146.349 503.315 162.314 493.632 175.051Z" fill="#657285"/>
<path d="M378.903 135.062C378.903 135.062 382.026 142.235 378.903 146.176C375.789 150.117 375.508 157.572 381.745 162.495C387.971 167.416 390.658 167.841 389.242 172.764C387.826 177.687 386.347 183.702 388.679 186.233C391.012 188.766 391.97 194.781 397.176 195.223C402.382 195.666 396.759 191.107 400.153 186.885C403.558 182.664 416.719 181.822 415.449 173.487C414.178 165.151 426.288 164.411 427.985 158.924C429.692 153.437 422.466 150.063 416.407 150.484C410.336 150.905 414.064 141.516 407.483 140.142C400.893 138.769 397.811 133.497 393.99 134.13C390.168 134.762 385.92 129.38 381.558 131.07C377.205 132.76 378.903 135.062 378.903 135.062Z" fill="#B8C1C9"/>
<path d="M367.855 77.6614C367.855 77.6614 363.326 81.1774 362.066 86.8054C360.806 92.4324 354.413 95.9493 353.424 103.706C352.435 111.462 356.933 111.652 355.34 115.874C353.747 120.095 355.725 122.206 360.577 124.317C365.429 126.428 365.856 129.671 368.72 130.739C371.593 131.808 370.844 134.655 371.802 134.972C372.759 135.288 372.333 132.814 373.332 129.578C374.321 126.341 375.165 125.004 371.562 125.144C367.949 125.284 369.074 122.401 370.49 120.573C371.906 118.747 368.511 118.463 367.376 118.744C366.242 119.024 366.533 124.231 364.19 121.767C361.848 119.304 360.723 116.492 362.629 113.256C364.544 110.02 368.647 112.696 371.562 108.826C374.467 104.957 378.569 106.503 378.798 109.599C379.028 112.696 384.817 112.764 385.806 108.686C386.805 104.608 386.378 97.4992 392.324 96.3417C398.279 95.1832 409.972 89.2715 402.527 86.8447C395.093 84.418 398.061 79.3511 394.239 79.6534C390.418 79.9547 391.907 85.6686 387.649 83.9676C383.401 82.2676 380.319 77.7432 386.274 76.4781C392.23 75.2119 394.666 68.6718 390.095 69.0921C385.525 69.5124 384.785 65.0823 382.026 65.6114C379.257 66.1404 376.393 72.8027 373.53 74.4716C370.656 76.1395 367.855 77.6614 367.855 77.6614Z" fill="#B8C1C9"/>
<path d="M406.172 64.6474C406.172 64.6474 412.054 63.0292 414.605 64.6474C417.156 66.2656 421.123 70.8366 417.791 72.5262C414.46 74.2159 410.982 74.777 412.617 77.9409C414.241 81.1059 407.942 82.163 406.172 77.9409C404.401 73.7199 404.402 72.1877 402.559 70.203C400.705 68.2182 401.497 64.0148 406.172 64.6474Z" fill="#B8C1C9"/>
<path d="M493.632 175.051C469.32 168.715 489.488 158.773 480.961 147.33C476.109 140.815 484.751 132.968 479.222 131.889C476.015 131.264 468.633 139.402 464.385 131.889C460.127 124.378 452.526 124.339 450.308 128.884C448.101 133.429 438.772 136.578 432.649 133.282C426.537 129.984 430.077 125.586 424.778 122.135C419.488 118.682 419.093 113.187 424.778 108.949C430.473 104.709 427.86 98.5853 436.398 100.47C444.935 102.354 443.28 82.807 443.28 82.807C443.145 79.3873 446.476 78.8013 444.581 75.6146C442.686 72.4289 437.345 75.0255 434.503 67.9595C431.66 60.8934 439.011 56.6538 444.935 57.3443C446.664 57.5462 450.86 56.3452 456.066 54.7736C485.324 66.7906 506.606 95.1118 508.084 128.082C508.886 146.349 503.315 162.314 493.632 175.051Z" fill="#B8C1C9"/>
<path d="M380.641 118.916C380.641 118.916 385.545 116.201 388.148 118.359C390.762 120.516 391.886 121.954 395.728 121.138C399.581 120.322 402.194 121.857 399.716 122.987C397.238 124.115 391.386 126.072 388.721 123.727C386.045 121.383 378.34 119.862 380.641 118.916Z" fill="#B8C1C9"/>
<path d="M400.393 127.679C400.393 127.679 403.871 128.294 404.683 126.873C405.484 125.453 403.87 126.812 402.538 126.072C401.205 125.331 398.654 126.072 400.393 127.679Z" fill="#B8C1C9"/>
<path d="M275.033 414.351C426.34 414.351 549.003 402.087 549.003 386.961C549.003 371.834 426.34 359.572 275.033 359.572C123.724 359.572 1.06207 371.834 1.06207 386.961C1.06207 402.087 123.724 414.351 275.033 414.351Z" fill="#EAEAEA"/>
<g opacity="0.6">
<path d="M411.482 259.391C442.822 227.572 486.802 189.992 505.939 206.838C529.002 227.151 472.996 252.706 430.879 278.877C415.771 288.266 391.501 279.672 411.482 259.391Z" fill="#D5D6DA"/>
</g>
<path d="M372.749 272.62C372.749 272.62 532.729 211.132 553.845 260.279C574.96 309.427 434.201 274.932 388.398 294.476L372.749 272.62Z" fill="#B8C1C9"/>
<path d="M381.401 284.908C412.773 270.841 451.474 266.389 478.42 265.13C507.626 263.767 529.668 265.764 529.887 265.781L530.012 264.422C529.803 264.4 507.657 262.398 478.358 263.763C451.297 265.026 412.408 269.517 380.829 283.659L381.401 284.908Z" fill="white"/>
<path d="M482.679 373.869C462.605 364.944 446.206 393.092 430.036 373.847C416.375 357.561 416.105 355.005 406.786 355.562C403.589 355.768 400.445 356.424 397.436 357.511C393.823 358.791 387.722 360.1 381.995 357.281C347.021 340.06 338.337 263.634 389.221 262.157C392.896 262.049 396.822 263.832 400.997 265.993C423.737 277.727 423.216 291.671 456.961 279.524C490.707 267.378 487.177 317.55 501.754 326.335C516.32 335.12 531.407 339.862 531.407 362.031C531.407 384.199 502.753 382.808 482.679 373.869Z" fill="#D5D6DA"/>
<g opacity="0.5">
<path d="M374.592 302.466L374.644 301.028C375.279 301.052 439.448 304.393 530.834 367.91L530.001 369.086C438.969 305.81 375.217 302.491 374.592 302.466Z" fill="white"/>
<path d="M455.982 308.827C451.974 289.582 456.107 279.65 456.295 279.236L457.617 279.801C457.586 279.898 453.494 289.783 457.399 308.536L455.982 308.827Z" fill="white"/>
<path d="M448.788 322.815C449.777 314.545 456.305 306.388 467.675 299.197C473.027 295.845 478.712 293.022 484.615 290.772L485.105 292.124C484.782 292.239 452.494 303.991 450.225 322.988L448.788 322.815Z" fill="white"/>
<path d="M473.922 338.065C473.381 335.864 473.193 334.544 473.173 334.468L474.62 334.271C474.662 334.548 478.858 362.319 503.107 378.921L502.285 380.1C482.731 366.734 475.942 346.274 473.922 338.065Z" fill="white"/>
<path d="M465.749 373.351C464.781 363.397 467.675 356.277 470.268 352.056C473.1 347.461 476.13 345.252 476.255 345.159L477.098 346.335C476.983 346.418 465.395 355.005 467.175 373.222L465.749 373.351Z" fill="white"/>
</g>
<path d="M103.636 53.0622C103.636 53.0622 108.703 43.382 121.516 44.5933C134.328 45.8057 132.804 55.5108 138.893 54.6007C144.983 53.6907 153.537 54.6007 155.369 60.6636C157.201 66.7264 165.437 63.3927 165.744 68.5455C166.052 73.6982 156.285 77.3415 144.993 72.7923C133.701 68.2431 128.213 76.3238 112.345 74.8599C96.4775 73.3959 94.5117 71.5769 85.1211 72.4869C75.7306 73.3959 75.9544 67.0101 80.2265 62.7777C84.4985 58.5453 101.803 58.9232 103.636 53.0622Z" fill="#EAEAEA"/>
<g opacity="0.6">
<path d="M167.884 84.9169C167.884 84.9169 170.52 79.8832 177.188 80.5127C183.857 81.1422 183.065 86.1935 186.239 85.7193C189.414 85.2441 193.842 85.7193 194.811 88.876C195.782 92.0337 200.054 90.3151 200.213 92.979C200.372 95.6439 195.289 97.553 189.414 95.1873C183.538 92.8206 180.678 97.0281 172.42 96.2661C164.163 95.5031 163.141 94.5578 158.255 95.0289C153.367 95.5 153.479 92.1776 155.721 89.9693C157.961 87.762 166.932 87.9774 167.884 84.9169Z" fill="#EAEAEA"/>
</g>
<path d="M90.6676 117.414C87.7387 120.812 85.7771 120.897 84.4371 119.758C83.0981 118.618 82.8805 116.68 85.8094 113.285C91.1497 107.094 96.1599 106.165 96.1599 106.165C96.1599 106.165 96.0871 111.127 90.6676 117.414Z" fill="#D5D6DA"/>
<path d="M99.9967 144.899C98.3277 149.06 96.5035 149.768 94.8636 149.121C93.2237 148.474 92.3876 146.708 94.0525 142.551C97.0866 134.975 101.525 132.483 101.525 132.483C101.525 132.483 103.074 137.212 99.9967 144.899Z" fill="#D5D6DA"/>
<path d="M123.036 216.856L122.211 217.061C122.178 216.935 118.894 204.195 108.406 187.482C98.7296 172.059 80.7658 149.998 50.1202 132.465L50.5481 131.746C81.3488 149.366 99.4209 171.548 109.138 187.061C119.713 203.886 123.036 216.727 123.036 216.856Z" fill="#D5D6DA"/>
<path d="M83.148 155.949L82.3192 155.748C89.618 125.848 69.7863 99.3617 69.5833 99.0956L70.2642 98.5852C70.4662 98.8513 90.5447 125.651 83.148 155.949Z" fill="#D5D6DA"/>
<path d="M66.4982 147.125C61.3745 148.807 55.8895 149.091 50.6168 147.948L50.8334 147.132C50.9313 147.157 60.6738 149.649 69.8113 144.767L70.2163 145.511C69.0231 146.148 67.7799 146.688 66.4982 147.125Z" fill="#D5D6DA"/>
<path d="M115.434 199.265C98.2194 203.063 82.0111 199.624 67.2625 189.074C66.9043 188.801 66.5305 188.547 66.1442 188.315C66.1765 188.323 66.2098 188.323 66.241 188.315V187.471C66.4951 187.471 66.7054 187.611 67.7695 188.376C82.3151 198.805 98.2922 202.17 115.256 198.445L115.434 199.265Z" fill="#D5D6DA"/>
<path d="M89.0058 198.661L88.1552 198.718C87.3763 187.244 74.9809 174.224 74.8539 174.094L75.4734 173.508C77.8192 176.044 79.9755 178.747 81.9246 181.595C84.9368 185.96 88.6008 192.491 89.0058 198.661Z" fill="#D5D6DA"/>
<path d="M48.0638 128.201C53.654 130.563 54.7577 132.577 54.0663 134.191C53.375 135.806 51.1707 136.41 45.5587 134.047C35.3716 129.733 31.7003 124.737 31.7003 124.737C31.7003 124.737 37.7247 123.836 48.0638 128.201Z" fill="#D5D6DA"/>
<path d="M51.8798 144.608C57.9292 145.187 59.5909 146.766 59.4212 148.521C59.2504 150.276 57.318 151.513 51.2676 150.933C40.2475 149.88 35.2269 146.209 35.2269 146.209C35.2269 146.209 40.6973 143.53 51.8798 144.608Z" fill="#D5D6DA"/>
<path d="M76.3678 170.667C79.6257 173.76 79.6007 175.702 78.3804 176.979C77.1601 178.254 75.2016 178.351 71.9437 175.259C66.013 169.621 65.355 164.601 65.355 164.601C65.355 164.601 70.3465 164.946 76.3678 170.667Z" fill="#D5D6DA"/>
<path d="M70.3215 131.527C72.7214 135.313 72.2216 137.198 70.7265 138.132C69.2313 139.067 67.3093 138.701 64.9051 134.896C60.5321 127.996 61.1256 122.968 61.1256 122.968C61.1256 122.968 65.8829 124.525 70.3215 131.527Z" fill="#D5D6DA"/>
<path d="M98.212 190.768C99.4469 195.083 98.4369 196.745 96.7346 197.241C95.0333 197.737 93.2924 196.831 92.0617 192.523C89.8169 184.68 91.8076 180.02 91.8076 180.02C91.8076 180.02 95.9349 182.811 98.212 190.768Z" fill="#D5D6DA"/>
<path d="M70.6547 187.119C74.503 189.449 74.9049 191.354 73.9855 192.854C73.0661 194.353 71.1763 194.875 67.3281 192.545C60.3156 188.298 58.5924 183.555 58.5924 183.555C58.5924 183.555 63.5444 182.815 70.6547 187.119Z" fill="#D5D6DA"/>
<path d="M70.839 94.7587C74.098 99.8504 73.8657 102.13 72.3779 103.072C70.89 104.014 68.7066 103.263 65.4456 98.1711C59.4972 88.8947 59.3192 82.7097 59.3192 82.7097C59.3192 82.7097 64.8084 85.3487 70.839 94.7587Z" fill="#D5D6DA"/>
<path d="M188.563 327.518C188.563 327.518 101.727 185.381 63.7838 210.232C25.8394 235.083 143.213 292.671 167.171 334.843L188.563 327.518Z" fill="#D5D6DA"/>
<path d="M148.154 302.163C148.154 302.163 48.2126 196.87 13.9218 226.842C-20.3701 256.813 100.229 281.584 128.105 313.217L148.154 302.163Z" fill="#EAEAEA"/>
<path d="M136.993 308.446C118.127 286.253 90.1105 268.766 69.9268 258.003C48.0461 246.339 30.4155 239.852 30.2385 239.786L30.6435 238.708C30.8205 238.773 48.5271 245.288 70.4662 256.993C90.7404 267.802 118.891 285.371 137.872 307.694L136.993 308.446Z" fill="white"/>
<path d="M90.6999 303.505C105.72 289.482 108.186 278.564 108.284 278.108L106.806 277.795C106.785 277.903 104.305 288.758 89.6649 302.412L90.6999 303.505Z" fill="white"/>
<path d="M88.3905 319.705C92.5324 312.081 91.8951 301.236 86.5444 288.342C84.0029 282.297 80.8678 276.515 77.1851 271.081L75.9544 271.94C76.1605 272.232 96.5899 301.467 87.065 318.996L88.3905 319.705Z" fill="white"/>
<path d="M57.7772 317.748C59.566 316.195 60.5322 315.188 60.5759 315.141L59.4899 314.12C59.2869 314.332 38.9595 335.486 8.28479 335.217V336.713C32.9747 336.931 51.1052 323.538 57.7772 317.748Z" fill="white"/>
<path d="M43.4596 352.671C50.2868 344.761 52.1193 336.982 52.4525 331.84C52.8138 326.242 51.5581 322.552 51.507 322.398L50.0806 322.886C50.1275 323.027 54.8201 337.234 42.3153 351.696L43.4596 352.671Z" fill="white"/>
<path d="M329.414 346.767V300.812H236.091V346.767C236.091 358.708 228.089 368.389 218.221 368.389H214.459V374.322H351.051V368.389H347.292C337.421 368.389 329.414 358.708 329.414 346.767Z" fill="#00A3FE"/>
<path d="M350.28 374.322H215.223C214.431 374.322 213.672 374.009 213.111 373.452C212.551 372.896 212.236 372.142 212.236 371.355C212.236 370.568 212.551 369.813 213.111 369.257C213.672 368.701 214.431 368.389 215.223 368.389H350.28C351.082 368.389 351.831 368.701 352.394 369.257C352.956 369.813 353.268 370.568 353.268 371.355C353.268 372.142 352.956 372.896 352.394 373.452C351.831 374.009 351.082 374.322 350.28 374.322Z" fill="#016EB9"/>
<path d="M441.718 329.025L126.132 325.429C122.885 325.391 119.785 324.083 117.502 321.79C115.22 319.497 113.939 316.402 113.938 313.178V121.857C113.939 118.64 115.213 115.554 117.486 113.262C119.758 110.971 122.847 109.659 126.085 109.61L437.605 104.871C440.864 104.821 444.009 106.056 446.362 108.306C448.704 110.555 450.058 113.636 450.121 116.873L454.192 316.525C454.223 318.166 453.931 319.798 453.317 321.322C452.703 322.846 451.786 324.232 450.62 325.398C449.454 326.564 448.069 327.486 446.539 328.109C445.019 328.732 443.374 329.043 441.718 329.025Z" fill="#016EB9"/>
<path d="M431.035 124.144H132.782C129.129 124.144 126.168 127.086 126.168 130.714V284.512C126.168 288.14 129.129 291.081 132.782 291.081H431.035C434.68 291.081 437.647 288.14 437.647 284.512V130.714C437.647 127.086 434.68 124.144 431.035 124.144Z" fill="#EAEAEA"/>
<path d="M314.442 71.9723L318.357 71.8678C318.721 71.8584 319.065 71.7798 319.398 71.6359C319.721 71.4909 320.012 71.2849 320.262 71.0271C320.502 70.7703 320.7 70.468 320.825 70.1367C320.949 69.8064 321.012 69.4534 321.002 69.0993L320.877 64.3596C320.856 63.6453 320.554 62.9671 320.033 62.4743C319.502 61.9825 318.805 61.7164 318.086 61.7351L315.317 61.8107C314.733 61.8252 314.161 61.6533 313.682 61.3199C313.203 60.9876 312.849 60.5113 312.662 59.9626C312.589 59.7462 312.516 59.5309 312.432 59.3186C312.245 58.8082 312.224 58.2543 312.36 57.7284C312.495 57.2035 312.797 56.7324 313.203 56.3773L315.098 54.7301C315.639 54.258 315.973 53.5923 316.025 52.8769C316.066 52.1625 315.827 51.4585 315.358 50.9191L312.214 47.3555C311.974 47.0884 311.693 46.87 311.37 46.7126C311.048 46.5552 310.704 46.462 310.35 46.4382C309.996 46.4144 309.632 46.461 309.298 46.5749C308.965 46.6877 308.653 46.8669 308.382 47.0998L306.477 48.747C306.071 49.1052 305.56 49.3309 305.019 49.3951C304.478 49.4593 303.926 49.3589 303.447 49.1063C303.249 49.0017 303.041 48.8982 302.833 48.8008C302.312 48.5482 301.885 48.1341 301.614 47.6195C301.344 47.105 301.25 46.5179 301.344 45.9454L301.781 43.2236C301.895 42.5175 301.729 41.7948 301.302 41.215C300.875 40.6353 300.24 40.2449 299.532 40.1311L294.826 39.3763C294.118 39.2635 293.389 39.4353 292.806 39.8546C292.223 40.2739 291.827 40.9065 291.713 41.6126L291.088 45.464C291.005 45.9692 290.776 46.4403 290.432 46.8223C290.088 47.2044 289.641 47.4808 289.141 47.6216C288.277 47.867 287.433 48.1734 286.611 48.5379C286.08 48.7791 285.476 48.8443 284.903 48.7232C284.331 48.602 283.82 48.3018 283.425 47.8659L281.394 45.5572C281.155 45.2901 280.874 45.0716 280.551 44.9142C280.239 44.7569 279.885 44.6637 279.531 44.6399C279.177 44.6161 278.823 44.6627 278.479 44.7765C278.146 44.8894 277.833 45.0685 277.563 45.3025L273.971 48.4229C273.429 48.8951 273.096 49.5608 273.054 50.2751C273.002 50.9895 273.242 51.6925 273.721 52.2308L276.449 55.3378C276.803 55.724 277.021 56.2003 277.105 56.7096C277.188 57.2201 277.115 57.7419 276.907 58.215C276.803 58.4448 276.709 58.6788 276.615 58.9118C276.417 59.4004 276.074 59.8208 275.647 60.121C275.21 60.4202 274.699 60.5869 274.168 60.5983L269.733 60.7143C269.014 60.7339 268.338 61.0362 267.838 61.557C267.338 62.0767 267.078 62.7704 267.099 63.4858L267.224 68.2255C267.244 68.9409 267.546 69.618 268.067 70.1108C268.588 70.6026 269.285 70.8687 270.004 70.85L273.814 70.7496C274.387 70.7351 274.939 70.8987 275.418 71.2165C275.886 71.5344 276.24 71.992 276.438 72.5221V72.5583C276.626 73.0698 276.657 73.6257 276.522 74.1537C276.386 74.6818 276.095 75.1559 275.678 75.5142L272.992 77.8519C272.721 78.0849 272.502 78.3696 272.346 78.6874C272.18 79.0053 272.086 79.351 272.065 79.7051C272.044 80.0592 272.086 80.4143 272.201 80.7498C272.315 81.0862 272.502 81.3968 272.732 81.6629L275.876 85.2306C276.115 85.4967 276.397 85.7152 276.719 85.8725C277.042 86.0289 277.386 86.122 277.75 86.1459C278.104 86.1686 278.458 86.1221 278.791 86.0082C279.135 85.8943 279.447 85.7152 279.718 85.4822L282.404 83.1445C282.81 82.7842 283.321 82.5574 283.872 82.4933C284.414 82.4291 284.966 82.5305 285.455 82.7852L285.486 82.8069C285.996 83.0689 286.402 83.481 286.652 83.9862C286.913 84.4914 287.006 85.064 286.913 85.622L286.309 89.3512C286.257 89.7011 286.267 90.0594 286.35 90.4041C286.434 90.7499 286.579 91.0761 286.788 91.3628C286.996 91.6507 287.267 91.895 287.569 92.0803C287.871 92.2667 288.214 92.3909 288.558 92.4468L293.264 93.1985C293.982 93.3113 294.711 93.1395 295.294 92.7202C295.877 92.3008 296.263 91.6683 296.388 90.9622L297.085 86.618C297.168 86.0993 297.398 85.6147 297.762 85.2265C298.116 84.8372 298.574 84.5618 299.095 84.4324C299.334 84.3713 299.584 84.3061 299.813 84.2347C300.313 84.0918 300.844 84.0949 301.333 84.2409C301.833 84.3879 302.27 84.6726 302.614 85.0608L305.352 88.1678C305.581 88.435 305.873 88.6534 306.185 88.8097C306.508 88.9671 306.862 89.0603 307.216 89.0831C307.57 89.1069 307.924 89.0603 308.268 88.9464C308.601 88.8325 308.913 88.6534 309.184 88.4194L312.776 85.299C313.047 85.065 313.265 84.7813 313.422 84.4635C313.588 84.1456 313.672 83.8009 313.703 83.4468C313.724 83.0927 313.682 82.7386 313.557 82.4021C313.442 82.0667 313.265 81.7571 313.036 81.49L310.996 79.1782C310.61 78.7402 310.381 78.1905 310.34 77.6107C310.288 77.0309 310.433 76.4532 310.746 75.9604C311.214 75.2046 311.631 74.4178 311.985 73.605C312.193 73.1277 312.537 72.7198 312.974 72.4299C313.411 72.1411 313.921 71.9816 314.442 71.9723ZM301.49 74.1838C297.325 77.8115 288.797 76.7804 285.143 72.638C281.498 68.4947 282.956 61.4907 287.121 57.8951C291.296 54.2984 298.407 56.2117 302.052 60.354C305.706 64.4963 305.665 70.556 301.49 74.1807V74.1838Z" fill="#00A3FE"/>
<path d="M294.149 96.2081C294.003 96.2092 293.847 96.1968 293.701 96.1719L288.995 95.4203C288.631 95.3644 288.287 95.236 287.975 95.0455C287.662 94.8539 287.381 94.6034 287.173 94.3073C286.954 94.0112 286.798 93.6758 286.715 93.3196C286.632 92.9645 286.621 92.5959 286.673 92.2346L287.277 88.5064C287.371 87.9639 287.287 87.4079 287.038 86.9172C286.788 86.4264 286.392 86.0247 285.903 85.769H285.861C285.393 85.5257 284.862 85.4294 284.331 85.4936C283.8 85.5578 283.3 85.7794 282.904 86.1293L280.218 88.466C279.937 88.7073 279.624 88.8915 279.27 89.0085C278.927 89.1255 278.552 89.1732 278.187 89.1493C277.823 89.1255 277.459 89.0303 277.136 88.8688C276.803 88.7062 276.511 88.4826 276.272 88.2072L273.127 84.6364C272.877 84.362 272.69 84.0431 272.575 83.6973C272.461 83.3505 272.409 82.985 272.43 82.6206C272.461 82.2562 272.555 81.9 272.721 81.5729C272.877 81.2457 273.106 80.9538 273.388 80.7136L276.074 78.3768C276.469 78.0248 276.761 77.562 276.886 77.0496C277.011 76.536 276.99 75.9956 276.803 75.4997V75.4635C276.615 74.9499 276.272 74.5068 275.814 74.1983C275.355 73.8898 274.814 73.7314 274.262 73.7448L270.462 73.8452C269.722 73.8639 269.004 73.5895 268.463 73.0812C267.921 72.5739 267.609 71.875 267.588 71.1379L267.463 66.3982C267.442 65.6621 267.723 64.9487 268.234 64.4145C268.744 63.8792 269.441 63.5676 270.191 63.5469L274.616 63.4289C275.126 63.4185 275.626 63.2581 276.043 62.9671C276.469 62.6772 276.792 62.2693 276.99 61.7962C277.084 61.5591 277.177 61.3251 277.282 61.0953C277.479 60.6377 277.552 60.1335 277.469 59.6417C277.396 59.1489 277.177 58.6892 276.844 58.3154L274.106 55.2084C273.617 54.6535 273.367 53.9288 273.419 53.1937C273.471 52.4576 273.814 51.7712 274.366 51.2856L277.958 48.1641C278.229 47.9229 278.552 47.7386 278.906 47.6216C279.249 47.5046 279.614 47.457 279.989 47.4808C280.353 47.5057 280.707 47.6019 281.04 47.7635C281.373 47.926 281.665 48.1517 281.905 48.4271L283.935 50.7348C284.31 51.1593 284.82 51.4523 285.372 51.5693C285.934 51.6873 286.507 51.6221 287.027 51.386C287.85 51.0216 288.693 50.7131 289.557 50.4656C290.047 50.3279 290.474 50.0577 290.807 49.686C291.15 49.3144 291.369 48.8568 291.452 48.366L292.077 44.5146C292.192 43.7868 292.598 43.1356 293.201 42.7038C293.795 42.2721 294.545 42.0961 295.284 42.2131L299.99 42.9647C300.719 43.0828 301.375 43.4855 301.812 44.0829C302.25 44.6813 302.427 45.4257 302.312 46.1546L301.864 48.8723C301.771 49.4282 301.864 49.9987 302.125 50.4988C302.385 50.9988 302.801 51.4005 303.312 51.6449C303.52 51.7422 303.728 51.8468 303.926 51.9503C304.394 52.1926 304.925 52.2878 305.456 52.2236C305.977 52.1594 306.477 51.9389 306.872 51.591L308.767 49.9438C309.33 49.4593 310.059 49.215 310.798 49.2636C311.537 49.3133 312.224 49.6519 312.714 50.2068L315.858 53.7704C316.097 54.0447 316.285 54.3636 316.41 54.7094C316.524 55.0552 316.576 55.4207 316.545 55.7851C316.524 56.1495 316.431 56.5057 316.264 56.8329C316.097 57.16 315.879 57.453 315.598 57.6932L313.703 59.3435C313.307 59.6883 313.016 60.1459 312.88 60.6542C312.755 61.1636 312.776 61.7009 312.953 62.1948C313.036 62.4112 313.109 62.6265 313.182 62.8419C313.359 63.3781 313.703 63.843 314.171 64.1671C314.629 64.4911 315.192 64.6578 315.754 64.6402L318.534 64.5646C319.273 64.546 319.992 64.8203 320.533 65.3277C321.064 65.8339 321.376 66.5328 321.397 67.2689L321.533 72.0086C321.553 72.7447 321.272 73.458 320.762 73.9923C320.252 74.5275 319.554 74.8391 318.815 74.8599L314.89 74.9675C314.38 74.9831 313.9 75.1404 313.484 75.42C313.068 75.7005 312.734 76.0919 312.537 76.5495C312.172 77.3684 311.756 78.1605 311.287 78.9193C310.985 79.3966 310.839 79.9578 310.891 80.5199C310.933 81.0821 311.152 81.6153 311.527 82.0408L313.567 84.3527C313.807 84.6271 313.994 84.947 314.109 85.2928C314.223 85.6386 314.275 86.004 314.254 86.3674C314.223 86.7319 314.13 87.088 313.973 87.4152C313.807 87.7434 313.578 88.0353 313.307 88.2755L309.694 91.3898C309.423 91.631 309.101 91.8153 308.747 91.9323C308.403 92.0493 308.039 92.0969 307.664 92.0731C307.299 92.0482 306.945 91.9519 306.612 91.7904C306.279 91.6279 305.987 91.4022 305.748 91.1268L303.01 88.0208C302.687 87.645 302.249 87.3696 301.771 87.2278C301.292 87.0859 300.781 87.0828 300.292 87.2185C300.053 87.2909 299.803 87.3593 299.574 87.4204C299.074 87.5446 298.626 87.8117 298.283 88.1886C297.929 88.5654 297.71 89.0344 297.627 89.5376L296.929 93.8818C296.815 94.534 296.481 95.1262 295.971 95.5528C295.461 95.9783 294.815 96.2113 294.149 96.2081ZM284.643 85.2772C285.091 85.2762 285.538 85.3849 285.934 85.593L285.976 85.6116C286.486 85.885 286.902 86.3115 287.163 86.8333C287.423 87.3541 287.517 87.9432 287.423 88.5168L286.819 92.246C286.704 92.9293 286.871 93.6292 287.277 94.1924C287.683 94.7546 288.297 95.1345 288.985 95.2484L293.691 95.9959C294.378 96.1057 295.086 95.941 295.648 95.5362C296.221 95.1324 296.596 94.5216 296.71 93.8383L297.418 89.4951C297.502 88.9588 297.741 88.4609 298.106 88.0602C298.47 87.6595 298.949 87.3758 299.48 87.2433C299.719 87.1822 299.969 87.118 300.209 87.0456C300.719 86.8986 301.271 86.9006 301.781 87.0518C302.291 87.2019 302.749 87.4959 303.103 87.8987L305.842 91.0046C306.071 91.2635 306.341 91.4757 306.654 91.6279C306.966 91.7801 307.299 91.8702 307.643 91.8929C307.997 91.9157 308.34 91.8712 308.663 91.7604C308.996 91.6496 309.298 91.4767 309.559 91.25L313.151 88.1285C313.671 87.6719 313.994 87.0259 314.046 86.3333C314.088 85.6406 313.859 84.9584 313.401 84.4355L311.36 82.1237C310.964 81.6723 310.725 81.1059 310.673 80.5086C310.631 79.9112 310.777 79.3148 311.1 78.8075C311.568 78.0549 311.985 77.2701 312.339 76.4594C312.557 75.9739 312.901 75.5587 313.338 75.2605C313.786 74.9634 314.307 74.7967 314.838 74.7801L318.753 74.6725C319.45 74.6528 320.117 74.3588 320.595 73.8556C321.074 73.3524 321.335 72.6805 321.314 71.9868L321.189 67.2513C321.168 66.5566 320.877 65.8981 320.366 65.4208C319.867 64.9425 319.19 64.6837 318.492 64.7013L315.712 64.7769C315.108 64.7934 314.525 64.6174 314.025 64.2747C313.536 63.932 313.172 63.4413 312.984 62.875C312.911 62.6586 312.839 62.4464 312.755 62.2352C312.568 61.7092 312.537 61.1388 312.682 60.5973C312.818 60.0558 313.12 59.5702 313.547 59.2037L315.441 57.5565C315.702 57.3298 315.921 57.0544 316.066 56.7459C316.222 56.4374 316.316 56.1019 316.337 55.7592C316.358 55.4155 316.316 55.0707 316.202 54.7456C316.097 54.4195 315.92 54.1182 315.691 53.8605L312.547 50.2927C312.089 49.773 311.433 49.4552 310.735 49.4086C310.038 49.363 309.35 49.5929 308.83 50.0484L306.935 51.6956C306.508 52.0642 305.987 52.2971 305.425 52.3644C304.873 52.4317 304.301 52.3302 303.801 52.0725C303.603 51.9689 303.405 51.8644 303.197 51.767C302.656 51.5082 302.208 51.0817 301.937 50.5516C301.656 50.0215 301.562 49.4158 301.656 48.8257L302.104 46.1069C302.208 45.4236 302.041 44.7227 301.635 44.1605C301.229 43.5973 300.615 43.2174 299.928 43.1045L295.221 42.3498C294.534 42.2411 293.826 42.4057 293.264 42.8105C292.702 43.2143 292.317 43.8241 292.202 44.5074L291.577 48.3588C291.484 48.8806 291.254 49.3672 290.9 49.7627C290.546 50.1571 290.078 50.4449 289.568 50.5909C288.714 50.8363 287.871 51.1417 287.058 51.5051C286.507 51.7536 285.892 51.8209 285.309 51.6946C284.716 51.5693 284.185 51.2577 283.779 50.8073L281.748 48.4985C281.519 48.2397 281.249 48.0285 280.936 47.8753C280.624 47.7231 280.291 47.633 279.937 47.6102C279.593 47.5874 279.249 47.633 278.927 47.7427C278.594 47.8535 278.292 48.0275 278.031 48.2542L274.439 51.3757C273.919 51.8323 273.596 52.4783 273.554 53.1709C273.502 53.8625 273.731 54.5448 274.189 55.0687L276.928 58.1746C277.282 58.5722 277.511 59.0598 277.594 59.5827C277.677 60.1055 277.615 60.6418 277.396 61.1274C277.302 61.3541 277.198 61.5871 277.105 61.821C276.907 62.3273 276.553 62.7621 276.105 63.0707C275.647 63.3802 275.116 63.55 274.574 63.5583L270.139 63.6763C269.795 63.6856 269.452 63.7623 269.139 63.902C268.827 64.0418 268.536 64.2416 268.296 64.4911C268.067 64.7406 267.88 65.0347 267.755 65.3556C267.63 65.6766 267.567 66.0193 267.578 66.363L267.703 71.1016C267.723 71.7963 268.025 72.4548 268.525 72.9321C269.035 73.4104 269.712 73.6692 270.41 73.6516L274.22 73.5512C274.804 73.5346 275.376 73.7024 275.866 74.0295C276.345 74.3567 276.719 74.8267 276.917 75.3744V75.4024C277.115 75.9304 277.146 76.505 277 77.0496C276.865 77.5941 276.563 78.0849 276.136 78.4555L273.44 80.7933C273.179 81.019 272.971 81.2944 272.815 81.6029C272.659 81.9114 272.575 82.2469 272.555 82.5906C272.523 82.9333 272.575 83.278 272.68 83.6042C272.794 83.9303 272.971 84.2305 273.2 84.4894L276.344 88.056C276.574 88.3159 276.844 88.5271 277.157 88.6793C277.469 88.8325 277.813 88.9226 278.156 88.9454C278.5 88.9682 278.843 88.9226 279.177 88.8118C279.499 88.701 279.801 88.5282 280.062 88.3014L282.748 85.9637C283.268 85.5112 283.945 85.2659 284.643 85.2772Z" fill="#131F2D"/>
<g opacity="0.6">
<path d="M408.858 143.94H154.613C150.977 143.94 148.03 146.866 148.03 150.477V193.426C148.03 197.036 150.977 199.963 154.613 199.963H408.858C412.492 199.963 415.438 197.036 415.438 193.426V150.477C415.438 146.866 412.492 143.94 408.858 143.94Z" fill="#D5D6DA"/>
</g>
<g opacity="0.6">
<path d="M411.44 217.061H288.672C288.422 217.061 288.172 217.012 287.943 216.917C287.714 216.822 287.506 216.682 287.329 216.507C287.152 216.331 287.006 216.122 286.913 215.893C286.819 215.663 286.767 215.418 286.767 215.17V214.055C286.767 213.805 286.819 213.558 286.913 213.328C287.017 213.097 287.152 212.888 287.329 212.713C287.517 212.537 287.725 212.397 287.954 212.303C288.193 212.209 288.433 212.162 288.693 212.163L411.461 213.288C411.961 213.294 412.439 213.494 412.793 213.847C413.147 214.202 413.345 214.679 413.345 215.177C413.345 215.677 413.147 216.156 412.783 216.509C412.429 216.862 411.95 217.061 411.44 217.061Z" fill="#D5D6DA"/>
</g>
<path d="M402.257 169.75H319.877V166.647L402.257 167.373V169.75Z" fill="#657285"/>
<path d="M356.673 176.733H319.877V173.63L356.673 174.36V176.733Z" fill="#00A3FE"/>
<path d="M368.616 191.844H319.877V188.737L368.616 189.467V191.844Z" fill="#00A3FE"/>
<path d="M356.673 184.839H319.877V181.735L356.673 182.465V184.839Z" fill="#5C305D"/>
<path d="M383.505 184.839H361.941V181.735L383.505 182.465V184.839Z" fill="#657285"/>
<path d="M398.727 176.733H361.941V173.63L398.727 174.36V176.733Z" fill="#00A3FE"/>
<g opacity="0.6">
<path d="M411.627 227.931L288.537 229.37C288.308 229.372 288.079 229.33 287.86 229.244C287.652 229.159 287.454 229.031 287.298 228.871C287.131 228.709 286.996 228.518 286.913 228.307C286.819 228.096 286.777 227.869 286.777 227.64V226.202C286.777 225.744 286.965 225.305 287.287 224.981C287.61 224.657 288.058 224.476 288.516 224.476H411.607C412.065 224.476 412.512 224.657 412.835 224.981C413.158 225.304 413.345 225.743 413.345 226.202C413.345 226.656 413.168 227.093 412.846 227.417C412.523 227.74 412.085 227.926 411.627 227.931Z" fill="#D5D6DA"/>
</g>
<g opacity="0.6">
<path d="M216.316 265.914H148.951V261.93L215.22 262.836C215.775 262.844 216.305 263.069 216.694 263.461C217.085 263.854 217.302 264.385 217.301 264.936C217.301 265.195 217.197 265.445 217.013 265.628C216.828 265.811 216.578 265.914 216.316 265.914Z" fill="#D5D6DA"/>
</g>
<g opacity="0.6">
<path d="M237.372 275.648L150.059 276.806C149.914 276.808 149.77 276.784 149.636 276.73C149.502 276.677 149.38 276.598 149.276 276.498C149.173 276.397 149.091 276.277 149.035 276.145C148.979 276.013 148.951 275.87 148.951 275.728V273.965C148.951 273.68 149.065 273.404 149.268 273.202C149.472 273 149.748 272.887 150.037 272.887H237.351C237.638 272.887 237.915 273 238.118 273.202C238.322 273.404 238.437 273.68 238.437 273.965V274.569C238.437 274.852 238.325 275.123 238.126 275.325C237.926 275.527 237.657 275.643 237.372 275.648Z" fill="#D5D6DA"/>
</g>
<g opacity="0.6">
<path d="M306.945 275.659L245.861 276.795C245.675 276.798 245.49 276.765 245.316 276.697C245.143 276.627 244.985 276.526 244.851 276.395C244.719 276.266 244.613 276.111 244.541 275.94C244.468 275.769 244.432 275.586 244.432 275.4V274.268C244.432 273.897 244.58 273.542 244.843 273.281C245.106 273.019 245.464 272.872 245.836 272.872H306.945C307.32 272.873 307.674 273.02 307.934 273.282C308.195 273.544 308.351 273.898 308.351 274.268C308.351 274.636 308.195 274.99 307.934 275.251C307.674 275.512 307.32 275.659 306.945 275.659Z" fill="#D5D6DA"/>
</g>
<g opacity="0.6">
<path d="M411.627 243.67L288.537 245.109C288.308 245.111 288.079 245.069 287.86 244.983C287.652 244.898 287.454 244.77 287.298 244.61C287.131 244.448 286.996 244.257 286.913 244.046C286.819 243.834 286.777 243.608 286.777 243.379V241.941C286.777 241.483 286.965 241.044 287.287 240.72C287.61 240.396 288.058 240.215 288.516 240.215H411.607C412.065 240.215 412.512 240.396 412.835 240.72C413.158 241.043 413.345 241.482 413.345 241.941C413.345 242.395 413.168 242.832 412.846 243.156C412.523 243.479 412.085 243.665 411.627 243.67Z" fill="#D5D6DA"/>
</g>
<path d="M203.939 207.611H153.824C150.624 207.611 148.03 210.187 148.03 213.364V244.494C148.03 247.671 150.624 250.247 153.824 250.247H203.939C207.138 250.247 209.731 247.671 209.731 244.494V213.364C209.731 210.187 207.138 207.611 203.939 207.611Z" fill="#D5D6DA"/>
<g opacity="0.6">
<path d="M268.296 207.611H222.941C220.22 207.611 218.014 209.802 218.014 212.505V245.353C218.014 248.055 220.22 250.247 222.941 250.247H268.296C271.014 250.247 273.221 248.055 273.221 245.353V212.505C273.221 209.802 271.014 207.611 268.296 207.611Z" fill="#D5D6DA"/>
</g>
<path d="M205.644 273.936C205.314 291.689 204.025 315.99 199.963 337.299C193.198 372.855 151.535 397.248 143.849 401.481C143.474 401.687 143.055 401.803 142.628 401.819C142.2 401.835 141.774 401.752 141.384 401.575C76.2188 371.84 77.2361 326.655 77.2361 326.655V273.584C77.2361 272.868 77.5193 272.179 78.0253 271.669C78.5313 271.159 79.2195 270.867 79.94 270.855C89.8637 270.693 124.47 268.837 139.596 251.192C139.842 250.908 140.146 250.677 140.488 250.515C140.829 250.353 141.201 250.263 141.58 250.251C141.958 250.239 142.335 250.304 142.686 250.445C143.038 250.585 143.356 250.795 143.621 251.063C150.138 257.64 171.381 275.874 205.527 273.944L205.644 273.936Z" fill="#00A3FE"/>
<path d="M142.47 392.84C142.428 392.839 142.386 392.83 142.346 392.815C129.061 386.867 117.779 379.69 108.808 371.47C101.629 364.893 95.91 357.637 91.7931 349.895C84.7994 336.72 84.9441 326.583 84.9441 326.482V282.002C84.9357 280.788 85.4063 279.619 86.2549 278.745C87.1035 277.872 88.2624 277.363 89.4837 277.327C94.3565 277.161 104.004 276.522 113.83 274.063C125.552 271.128 134.194 266.511 139.534 260.348C139.783 260.056 140.09 259.82 140.437 259.653C140.784 259.486 141.16 259.394 141.546 259.381C141.93 259.368 142.313 259.436 142.67 259.579C143.026 259.721 143.349 259.937 143.618 260.211C147.238 263.907 156.973 272.89 169.44 276.432C177.19 278.581 185.166 279.824 193.205 280.139C194.397 280.189 195.521 280.7 196.339 281.564C197.155 282.428 197.599 283.575 197.574 284.76C197.053 305.5 195.539 322.214 192.94 335.857C191.441 343.721 187.872 351.613 182.296 359.309C177.847 365.455 172.131 371.491 165.303 377.252C158.284 383.177 150.682 388.384 142.611 392.793C142.568 392.82 142.52 392.837 142.47 392.84ZM141.64 259.984H141.569C141.266 259.995 140.968 260.067 140.694 260.198C140.421 260.327 140.178 260.511 139.979 260.739C134.578 267.004 125.835 271.681 113.989 274.645C104.109 277.119 94.4179 277.762 89.516 277.928C88.4519 277.96 87.4429 278.403 86.7026 279.164C85.9634 279.924 85.5511 280.941 85.5552 281.998V326.501C85.5552 326.608 85.4147 336.619 92.3512 349.668C96.4233 357.331 102.104 364.527 109.236 371.053C118.124 379.19 129.299 386.31 142.459 392.211C150.446 387.832 157.973 382.672 164.927 376.806C175.585 367.817 188.997 353.387 192.354 335.756C194.946 322.149 196.455 305.465 196.977 284.756C196.994 283.727 196.607 282.733 195.898 281.983C195.189 281.233 194.214 280.787 193.179 280.739C185.096 280.422 177.078 279.17 169.285 277.011C156.679 273.415 146.839 264.364 143.198 260.631C142.996 260.424 142.754 260.261 142.486 260.149C142.218 260.038 141.931 259.982 141.64 259.984Z" fill="#131F2D"/>
<path d="M156.44 348.406H115.202C113.367 348.405 111.607 347.679 110.31 346.39C109.011 345.101 108.281 343.354 108.28 341.531V316.259C108.281 314.436 109.01 312.687 110.309 311.397C111.606 310.108 113.366 309.383 115.202 309.381H117.526C118.521 305.307 120.865 301.682 124.184 299.09C127.502 296.498 131.6 295.089 135.821 295.089C140.042 295.089 144.141 296.498 147.459 299.09C150.777 301.682 153.122 305.307 154.116 309.381H156.44C158.277 309.383 160.037 310.107 161.336 311.397C162.634 312.687 163.364 314.436 163.366 316.259V341.531C163.363 343.355 162.632 345.102 161.335 346.391C160.036 347.679 158.276 348.405 156.44 348.406ZM115.202 309.971C113.524 309.973 111.915 310.636 110.729 311.816C109.542 312.995 108.876 314.592 108.874 316.259V341.531C108.876 343.197 109.543 344.795 110.729 345.974C111.915 347.152 113.524 347.815 115.202 347.817H156.44C158.118 347.815 159.727 347.152 160.914 345.974C162.101 344.796 162.769 343.198 162.773 341.531V316.259C162.771 314.592 162.103 312.994 160.916 311.815C159.728 310.635 158.12 309.972 156.44 309.971H153.881C153.814 309.971 153.749 309.948 153.697 309.908C153.643 309.866 153.607 309.808 153.591 309.744C152.666 305.751 150.404 302.188 147.177 299.637C143.949 297.086 139.946 295.697 135.821 295.697C131.696 295.697 127.694 297.086 124.466 299.637C121.238 302.188 118.977 305.751 118.051 309.744C118.037 309.809 117.999 309.867 117.947 309.908C117.894 309.949 117.828 309.971 117.762 309.971H115.202ZM149.145 309.971H122.5C122.454 309.971 122.409 309.96 122.367 309.94C122.325 309.919 122.289 309.889 122.262 309.852C122.234 309.814 122.215 309.772 122.206 309.726C122.199 309.681 122.201 309.633 122.215 309.589C123.12 306.707 124.927 304.188 127.375 302.4C129.823 300.611 132.782 299.646 135.821 299.646C138.861 299.646 141.82 300.611 144.267 302.4C146.715 304.188 148.524 306.707 149.428 309.589C149.442 309.633 149.446 309.68 149.439 309.725C149.431 309.771 149.413 309.814 149.385 309.852C149.358 309.889 149.321 309.919 149.28 309.94C149.238 309.96 149.192 309.971 149.145 309.971ZM122.909 309.381H148.74C147.815 306.71 146.073 304.394 143.758 302.754C141.444 301.115 138.672 300.232 135.828 300.232C132.985 300.232 130.213 301.115 127.899 302.754C125.584 304.394 123.842 306.71 122.917 309.381H122.909Z" fill="#131F2D"/>
<path d="M160.456 305.677H121.607C117.681 305.677 114.5 308.837 114.5 312.735V337.055C114.5 340.953 117.681 344.112 121.607 344.112H160.456C164.38 344.112 167.562 340.953 167.562 337.055V312.735C167.562 308.837 164.38 305.677 160.456 305.677Z" fill="#131F2D"/>
<path d="M141.032 328.209C137.366 328.209 133.783 327.13 130.734 325.107C127.684 323.084 125.308 320.209 123.905 316.845C122.501 313.48 122.135 309.778 122.849 306.207C123.564 302.635 125.33 299.355 127.923 296.78C130.515 294.205 133.818 292.451 137.414 291.741C141.01 291.031 144.737 291.395 148.124 292.79C151.511 294.183 154.407 296.544 156.442 299.572C158.479 302.599 159.566 306.16 159.565 309.801C159.559 314.681 157.605 319.36 154.131 322.811C150.656 326.261 145.946 328.203 141.032 328.209ZM141.032 295.939C138.272 295.939 135.573 296.751 133.279 298.274C130.983 299.797 129.193 301.961 128.136 304.494C127.079 307.027 126.802 309.814 127.341 312.503C127.879 315.193 129.207 317.663 131.16 319.602C133.111 321.541 135.597 322.861 138.306 323.397C141.013 323.932 143.819 323.658 146.37 322.609C148.92 321.559 151.1 319.782 152.633 317.503C154.167 315.223 154.986 312.543 154.986 309.801C154.981 306.127 153.51 302.603 150.895 300.005C148.279 297.406 144.733 295.944 141.032 295.939Z" fill="#131F2D"/>
<path d="M141.032 326.396C140.52 326.395 140.03 326.192 139.667 325.833C139.305 325.473 139.101 324.985 139.1 324.476V315.166C139.101 314.658 139.305 314.17 139.667 313.81C140.03 313.449 140.52 313.247 141.032 313.246C141.545 313.249 142.035 313.451 142.396 313.811C142.758 314.171 142.962 314.658 142.963 315.166V324.476C142.962 324.984 142.758 325.471 142.396 325.832C142.035 326.191 141.545 326.394 141.032 326.396Z" fill="#00A3FE"/>
<path d="M141.032 334.836C143.91 334.836 146.243 332.519 146.243 329.661C146.243 326.803 143.91 324.487 141.032 324.487C138.156 324.487 135.823 326.803 135.823 329.661C135.823 332.519 138.156 334.836 141.032 334.836Z" fill="#00A3FE"/>
<path d="M235.783 194.95C235.668 194.95 235.556 194.923 235.454 194.871L228.025 191.182C227.937 191.14 227.858 191.081 227.794 191.009C227.73 190.937 227.681 190.852 227.65 190.761C227.62 190.669 227.607 190.572 227.615 190.476C227.623 190.38 227.65 190.286 227.694 190.2C227.737 190.113 227.797 190.035 227.869 189.971C227.942 189.908 228.027 189.859 228.119 189.828C228.211 189.798 228.309 189.786 228.406 189.794C228.502 189.801 228.597 189.828 228.684 189.873L236.123 193.555C236.288 193.617 236.423 193.736 236.506 193.89C236.588 194.044 236.611 194.223 236.571 194.393C236.531 194.563 236.43 194.712 236.286 194.813C236.144 194.915 235.968 194.96 235.794 194.942L235.783 194.95Z" fill="#131F2D"/>
<path d="M225.226 203.807C225.03 203.813 224.841 203.742 224.698 203.609C224.555 203.477 224.472 203.292 224.466 203.099C224.459 202.904 224.531 202.716 224.665 202.574C224.799 202.433 224.983 202.349 225.179 202.343L233.433 201.789C233.628 201.777 233.82 201.84 233.968 201.968C234.115 202.096 234.205 202.276 234.219 202.469C234.232 202.663 234.168 202.853 234.04 203C233.91 203.146 233.729 203.236 233.535 203.25L225.277 203.803L225.226 203.807Z" fill="#131F2D"/>
<path d="M229.896 216.097C229.729 216.107 229.564 216.059 229.429 215.962C229.294 215.864 229.197 215.723 229.154 215.563C229.112 215.403 229.126 215.233 229.196 215.082C229.265 214.93 229.384 214.808 229.534 214.735L236.713 210.546C236.797 210.497 236.888 210.465 236.984 210.452C237.08 210.438 237.177 210.443 237.27 210.468C237.364 210.492 237.452 210.534 237.529 210.591C237.606 210.649 237.67 210.722 237.719 210.805C237.768 210.886 237.8 210.979 237.814 211.073C237.827 211.168 237.822 211.265 237.797 211.358C237.773 211.451 237.731 211.538 237.673 211.614C237.615 211.691 237.542 211.755 237.459 211.804L230.283 215.993C230.166 216.062 230.032 216.098 229.896 216.097Z" fill="#131F2D"/>
<path d="M259.93 194.95C259.793 194.952 259.658 194.914 259.541 194.842C259.424 194.77 259.33 194.667 259.271 194.544C259.226 194.458 259.199 194.365 259.191 194.268C259.183 194.172 259.195 194.075 259.226 193.984C259.256 193.892 259.305 193.808 259.37 193.735C259.434 193.663 259.512 193.604 259.601 193.562L267.036 189.88C267.13 189.837 267.224 189.811 267.317 189.805C267.411 189.799 267.515 189.811 267.598 189.841C267.692 189.873 267.775 189.92 267.848 189.983C267.921 190.046 267.984 190.123 268.025 190.209C268.067 190.295 268.098 190.388 268.098 190.484C268.109 190.58 268.098 190.676 268.067 190.767C268.036 190.858 267.984 190.942 267.921 191.014C267.859 191.087 267.786 191.146 267.692 191.188L260.244 194.864C260.148 194.916 260.04 194.946 259.93 194.95Z" fill="#131F2D"/>
<path d="M270.483 203.807H270.43L262.178 203.253C261.983 203.24 261.801 203.149 261.673 203.003C261.545 202.858 261.48 202.666 261.494 202.472C261.507 202.279 261.597 202.099 261.745 201.971C261.892 201.844 262.084 201.78 262.279 201.793L270.535 202.347C270.732 202.353 270.909 202.436 271.045 202.578C271.18 202.72 271.253 202.908 271.243 203.102C271.243 203.296 271.159 203.48 271.014 203.612C270.868 203.746 270.68 203.816 270.483 203.81V203.807Z" fill="#131F2D"/>
<path d="M265.816 216.097C265.689 216.095 265.564 216.059 265.455 215.993L258.279 211.804C258.195 211.755 258.124 211.691 258.065 211.614C258.007 211.538 257.964 211.451 257.94 211.358C257.916 211.265 257.91 211.168 257.924 211.073C257.937 210.979 257.969 210.886 258.018 210.805C258.067 210.722 258.132 210.649 258.209 210.591C258.286 210.534 258.374 210.492 258.467 210.468C258.561 210.443 258.659 210.438 258.753 210.452C258.849 210.465 258.942 210.497 259.025 210.546L266.19 214.727C266.339 214.801 266.458 214.923 266.528 215.074C266.599 215.225 266.609 215.395 266.568 215.556C266.526 215.716 266.429 215.857 266.294 215.954C266.158 216.052 265.994 216.099 265.827 216.09L265.816 216.097Z" fill="#131F2D"/>
<path d="M262.634 199.625C262.634 209.118 256.295 216.885 248.33 217.352C248.07 217.366 247.809 217.374 247.548 217.374C239.222 217.374 232.463 209.427 232.463 199.625C232.429 195.678 233.585 191.81 235.783 188.52C238.545 184.468 242.788 181.872 247.548 181.872C248.851 181.874 250.146 182.069 251.39 182.454C254.648 183.525 257.442 185.664 259.315 188.52C261.512 191.81 262.668 195.678 262.634 199.625Z" fill="#657285"/>
<path d="M262.634 199.624C262.634 209.118 256.295 216.885 248.33 217.352C247.3 214.42 246.563 211.395 246.129 208.319C245.217 201.94 245.604 195.892 247.001 190.973C247.991 187.471 249.493 184.536 251.389 182.454C254.647 183.525 257.442 185.664 259.315 188.52C261.512 191.81 262.668 195.678 262.634 199.624Z" fill="#657285"/>
<path d="M247.548 195.173C254.046 195.173 259.315 192.196 259.315 188.525C259.315 184.852 254.046 181.876 247.548 181.876C241.05 181.876 235.783 184.852 235.783 188.525C235.783 192.196 241.05 195.173 247.548 195.173Z" fill="#131F2D"/>
<path d="M244.246 184.18C244.055 184.18 243.871 184.105 243.735 183.97C243.599 183.835 243.523 183.652 243.523 183.462C243.385 177.905 238.226 175.654 238.172 175.633C237.992 175.557 237.85 175.412 237.776 175.232C237.704 175.052 237.706 174.85 237.783 174.671C237.86 174.493 238.004 174.351 238.187 174.279C238.368 174.206 238.571 174.208 238.751 174.285C239.001 174.392 244.837 176.938 244.993 183.426C244.997 183.522 244.98 183.619 244.946 183.709C244.912 183.8 244.859 183.883 244.791 183.953C244.723 184.023 244.642 184.078 244.553 184.116C244.463 184.153 244.366 184.173 244.268 184.173L244.246 184.18Z" fill="#131F2D"/>
<path d="M250.336 186.062C250.152 186.062 249.974 185.992 249.84 185.868C249.705 185.743 249.624 185.572 249.612 185.389C248.986 177.557 254.362 174.458 254.59 174.328C254.759 174.233 254.961 174.208 255.149 174.26C255.337 174.312 255.497 174.436 255.592 174.605C255.689 174.773 255.713 174.973 255.661 175.161C255.609 175.347 255.484 175.505 255.314 175.601C255.111 175.717 250.531 178.409 251.078 185.274C251.087 185.37 251.077 185.466 251.048 185.557C251.018 185.649 250.97 185.734 250.908 185.807C250.846 185.88 250.768 185.939 250.682 185.983C250.596 186.026 250.501 186.051 250.405 186.057L250.336 186.062Z" fill="#131F2D"/>
<g opacity="0.4">
<path d="M291.838 244.828C315.764 221.056 315.764 182.512 291.838 158.739C267.9 134.967 229.096 134.967 205.162 158.739C181.227 182.512 181.227 221.056 205.161 244.828C229.096 268.601 267.9 268.601 291.838 244.828Z" fill="#00A3FE"/>
</g>
<path d="M318.169 253.663C318.169 253.663 307.341 253.897 304.373 249.183C301.396 244.468 306.435 240.366 306.435 240.366L322.553 249.02L318.169 253.663Z" fill="#FF7955"/>
<path d="M301.292 229.008L296.575 236.568L416.125 310.105L420.842 302.545L301.292 229.008Z" fill="#131F2D"/>
<path d="M421.998 305.677L419.436 309.783C418.947 310.567 418.156 311.126 417.26 311.337C416.354 311.549 415.407 311.394 414.616 310.909L352.248 272.541C351.457 272.055 350.894 271.278 350.686 270.379C350.468 269.481 350.624 268.536 351.113 267.751L353.674 263.645C354.164 262.862 354.945 262.302 355.85 262.091C356.756 261.88 357.704 262.034 358.495 262.52L420.863 300.887C421.654 301.373 422.216 302.151 422.425 303.05C422.643 303.947 422.487 304.892 421.998 305.677Z" fill="#131F2D"/>
<path d="M193.953 168.226C187.272 178.941 183.938 191.384 184.376 203.981C184.814 216.578 189.002 228.762 196.412 238.995C203.821 249.227 214.119 257.048 226.004 261.467C237.888 265.887 250.825 266.706 263.179 263.822C275.532 260.939 286.746 254.482 295.409 245.267C304.061 236.053 309.777 224.496 311.818 212.056C313.869 199.617 312.151 186.855 306.893 175.382C301.635 163.911 293.077 154.245 282.29 147.607C275.126 143.199 267.161 140.237 258.842 138.888C250.527 137.539 242.025 137.83 233.822 139.744C225.619 141.659 217.876 145.16 211.035 150.047C204.196 154.934 198.391 161.11 193.953 168.226ZM298.262 232.397C292.16 242.173 283.279 249.934 272.742 254.697C262.208 259.462 250.485 261.015 239.06 259.161C227.634 257.308 217.018 252.13 208.554 244.284C200.09 236.438 194.16 226.275 191.511 215.081C188.863 203.887 189.616 192.164 193.674 181.394C197.734 170.625 204.917 161.294 214.316 154.58C223.715 147.864 234.908 144.07 246.479 143.673C258.049 143.278 269.473 146.298 279.322 152.354C285.851 156.374 291.525 161.633 296.013 167.832C300.511 174.03 303.718 181.046 305.477 188.479C307.237 195.913 307.508 203.616 306.269 211.151C305.03 218.688 302.302 225.907 298.262 232.397Z" fill="#131F2D"/>
<path d="M414.949 267.251C412.054 245.717 387.742 233.552 387.742 233.552C387.742 233.552 389.804 281.545 393.958 280.129C401.07 277.705 410.815 277.654 414.949 267.251Z" fill="#00A3FE"/>
<path d="M367.439 388.306C367.439 388.306 367.252 391.902 364.805 392.866C362.358 393.829 355.319 394.545 357.881 396.932C359.349 398.305 366.46 397.651 368.459 397.691C370.458 397.731 372.312 398.676 373.842 397.367C375.519 395.929 374.082 388.489 374.082 388.489C374.082 388.489 372.322 389.349 370.771 389.266C368.543 389.147 367.439 388.306 367.439 388.306Z" fill="#131F2D"/>
<path d="M349.884 297.432C350.353 304.914 351.238 314.626 352.873 326.508C355.986 349.162 359.765 371.992 361.629 382.941C361.921 384.812 362.837 386.532 364.232 387.823C365.627 389.114 367.418 389.9 369.313 390.057L371.385 390.198C375.539 390.477 379.017 386.961 378.83 382.668L375.571 308.841L375.258 297.098C375.258 297.098 349.114 285.159 349.884 297.432Z" fill="#364154"/>
<path d="M390.366 388.931C390.366 388.931 390.179 392.527 387.732 393.487C385.285 394.448 378.247 395.166 380.808 397.558C382.276 398.927 389.377 398.277 391.387 398.317C393.386 398.356 395.239 399.302 396.759 397.989C398.436 396.551 396.999 389.112 396.999 389.112C396.999 389.112 395.249 389.971 393.698 389.888C391.459 389.769 390.366 388.931 390.366 388.931Z" fill="#131F2D"/>
<path d="M372.395 279.503C372.395 279.503 371.479 295.77 375.789 327.137C378.913 349.791 382.693 372.621 384.556 383.571C384.848 385.441 385.764 387.162 387.149 388.453C388.544 389.744 390.335 390.531 392.24 390.686L394.312 390.826C398.467 391.107 401.944 387.591 401.746 383.297L398.487 309.471L397.852 285.184L372.395 279.503Z" fill="#364154"/>
<path d="M376.82 333.523L376.508 333.48C376.508 333.347 378.288 320.013 379.621 315.227C380.954 310.442 387.149 306.238 387.222 306.184L387.399 306.446C387.347 306.486 381.245 310.593 379.933 315.31C378.621 320.028 376.82 333.39 376.82 333.523Z" fill="#131F2D"/>
<path d="M376.893 229.499L375.29 224.633L374.821 223.217L372.062 214.886L371.697 223.156L371.479 228.133L371.416 229.708C371.364 230.786 370.667 230.999 369.823 231.93C369.48 232.29 367.293 234.587 369.782 235.616C372.884 236.903 378.684 234.958 380.891 232.408C380.87 232.419 377.414 231.074 376.893 229.499Z" fill="#FF7955"/>
<path d="M380.173 219.428C381.11 214.579 378.392 209.989 374.103 209.175C369.823 208.361 365.596 211.632 364.659 216.481C363.732 221.331 366.439 225.921 370.729 226.735C375.009 227.549 379.236 224.277 380.173 219.428Z" fill="#FF7955"/>
<path d="M368.032 214.886C363.514 215.044 361.317 212.602 361.265 210.341C361.202 207.439 363.149 204.871 365.419 205.95C367.689 207.029 366.721 204.383 368.897 204.102C372.978 203.577 373.749 206.295 377.08 206.428C381.485 206.6 386.493 213.473 382.817 218.489C382.817 218.489 371.604 214.76 368.032 214.886Z" fill="#131F2D"/>
<path d="M364.003 211.958C364.003 211.958 368.834 216.313 368.199 218.765C367.564 221.218 367.72 222.175 370.542 223.483C373.363 224.792 370.875 226.91 374.634 227.079C378.392 227.248 382.994 223.073 382.994 216.234C382.974 213.925 382.151 211.695 380.652 209.927L364.003 211.958Z" fill="#131F2D"/>
<path d="M365.763 218.658C366.002 218.311 366.377 218.067 366.793 217.977C367.21 217.886 367.637 217.955 368.012 218.169C368.178 218.288 368.313 218.44 368.418 218.616C368.522 218.792 368.595 218.987 368.615 219.19C368.647 219.393 368.626 219.598 368.563 219.793C368.511 219.989 368.407 220.17 368.272 220.326C368.032 220.673 367.658 220.916 367.241 221.006C366.825 221.096 366.398 221.026 366.023 220.811C365.856 220.693 365.721 220.541 365.617 220.366C365.513 220.19 365.44 219.995 365.419 219.792C365.388 219.589 365.409 219.384 365.471 219.189C365.523 218.993 365.627 218.813 365.763 218.658Z" fill="#FFB27D"/>
<path d="M384.629 220.376C384.608 220.375 384.577 220.366 384.556 220.35C384.535 220.334 384.525 220.312 384.515 220.286C384.317 219.68 383.911 219.169 383.349 218.848C383.338 218.842 383.328 218.832 383.317 218.821C383.307 218.81 383.307 218.796 383.296 218.782C383.296 218.767 383.296 218.753 383.296 218.738C383.296 218.724 383.296 218.709 383.307 218.697C383.317 218.684 383.328 218.672 383.338 218.663C383.349 218.653 383.359 218.646 383.38 218.642C383.39 218.638 383.401 218.637 383.421 218.638C383.432 218.639 383.453 218.643 383.463 218.65C384.077 219.004 384.535 219.576 384.744 220.251C384.744 220.265 384.744 220.28 384.744 220.294C384.744 220.309 384.733 220.323 384.723 220.336C384.723 220.349 384.712 220.36 384.692 220.369C384.681 220.377 384.671 220.383 384.66 220.388L384.629 220.376Z" fill="#131F2D"/>
<path d="M383.411 218.323C383.38 218.323 383.349 218.313 383.328 218.293C383.307 218.273 383.296 218.247 383.296 218.219C383.296 218.204 383.296 218.19 383.296 218.175C383.307 218.162 383.307 218.149 383.317 218.138C383.328 218.126 383.348 218.118 383.359 218.111C383.369 218.105 383.38 218.101 383.401 218.101C383.401 218.101 384.629 218.018 384.806 217.133C384.817 217.104 384.837 217.078 384.858 217.061C384.879 217.045 384.91 217.037 384.941 217.042C384.973 217.049 384.994 217.066 385.014 217.091C385.035 217.116 385.035 217.146 385.035 217.176C384.817 218.23 383.473 218.319 383.411 218.323Z" fill="#131F2D"/>
<path d="M366.106 205.777C366.023 205.777 365.94 205.766 365.867 205.741C365.534 205.638 365.221 205.483 364.94 205.281C364.68 205.066 364.367 204.922 364.034 204.865C363.711 204.808 363.368 204.84 363.055 204.957C363.035 204.962 363.024 204.963 363.014 204.962C362.993 204.96 362.983 204.956 362.962 204.949C362.951 204.943 362.941 204.932 362.931 204.921C362.92 204.909 362.92 204.896 362.91 204.882C362.91 204.868 362.91 204.853 362.91 204.838C362.91 204.824 362.91 204.809 362.92 204.796C362.931 204.783 362.941 204.772 362.951 204.762C362.962 204.753 362.972 204.746 362.993 204.742C363.337 204.616 363.712 204.584 364.076 204.648C364.44 204.711 364.773 204.867 365.055 205.101C365.325 205.291 365.617 205.435 365.929 205.533C366.002 205.559 366.085 205.567 366.169 205.554C366.252 205.543 366.335 205.512 366.408 205.464C366.898 205.13 367.022 204.026 367.022 204.026C367.022 203.997 367.043 203.97 367.064 203.952C367.085 203.933 367.116 203.924 367.147 203.926C367.158 203.927 367.179 203.931 367.189 203.938C367.2 203.946 367.21 203.955 367.22 203.967C367.231 203.979 367.241 203.992 367.241 204.007C367.251 204.021 367.251 204.037 367.241 204.051C367.241 204.098 367.116 205.252 366.523 205.648C366.398 205.733 366.252 205.778 366.106 205.777Z" fill="#131F2D"/>
<path d="M376.737 206.068C375.675 206.021 374.655 205.622 373.842 204.932C373.832 204.923 373.822 204.912 373.811 204.898C373.801 204.885 373.801 204.869 373.79 204.854C373.79 204.838 373.79 204.823 373.801 204.807C373.801 204.793 373.811 204.779 373.822 204.767C373.832 204.755 373.842 204.746 373.863 204.74C373.874 204.734 373.894 204.729 373.905 204.729C373.926 204.729 373.936 204.732 373.957 204.74C373.967 204.746 373.978 204.755 373.988 204.767C373.988 204.767 375.487 206.072 377.216 205.809C377.247 205.805 377.278 205.813 377.299 205.83C377.33 205.848 377.341 205.874 377.351 205.903C377.351 205.932 377.341 205.962 377.33 205.986C377.31 206.011 377.278 206.028 377.247 206.033C377.08 206.057 376.914 206.069 376.737 206.068Z" fill="#131F2D"/>
<path d="M366.97 221.121C366.866 221.124 366.762 221.11 366.658 221.081C366.648 221.08 366.648 221.077 366.637 221.073C366.627 221.069 366.627 221.064 366.616 221.056C366.616 221.05 366.616 221.043 366.616 221.035C366.606 221.026 366.606 221.019 366.616 221.011C366.616 221.004 366.616 220.996 366.627 220.99C366.627 220.985 366.637 220.98 366.648 220.978C366.648 220.975 366.658 220.974 366.669 220.974C366.679 220.975 366.689 220.977 366.689 220.981C366.731 220.981 367.71 221.286 368.407 219.992C368.407 219.985 368.418 219.98 368.418 219.974C368.428 219.97 368.428 219.967 368.439 219.965C368.449 219.963 368.449 219.962 368.459 219.963C368.47 219.964 368.47 219.966 368.48 219.97C368.491 219.977 368.501 219.988 368.501 220.001C368.511 220.015 368.511 220.029 368.501 220.042C368.001 220.966 367.356 221.121 366.97 221.121Z" fill="#131F2D"/>
<path d="M349.884 297.432C349.884 297.432 382.672 295.634 398.227 299.405L398.467 294.933L376.643 288.442L359.026 288.877L353.622 290.042L349.801 295.993L349.884 297.432Z" fill="#131F2D"/>
<path d="M395.322 242.951C395.322 242.951 392.428 230.437 374.779 230.437C344.012 230.437 352.643 255.742 349.801 295.975C349.801 295.975 369.636 291.638 398.331 297.413C398.331 297.413 401.132 275.626 397.519 257.209C396.561 252.34 396.728 247.18 395.322 242.951Z" fill="#00A3FE"/>
<path d="M371.239 230.437C371.239 230.437 361.369 230.581 354.028 237.568C346.698 244.555 337.244 254.174 335.235 259.708C332.767 266.54 337.317 273.372 343.085 273.509C348.854 273.645 354.028 269.435 354.028 269.435L371.239 230.437Z" fill="#00A3FE"/>
<path d="M399.268 287.593H399.05C399.904 271.811 397.134 255.655 397.103 255.493L397.321 255.457C397.332 255.608 400.112 271.79 399.268 287.593Z" fill="#131F2D"/>
<path d="M350.613 271.703L350.499 271.52C356.298 268.068 363.847 258.981 363.92 258.888L364.086 259.028C364.013 259.118 356.444 268.237 350.613 271.703Z" fill="#131F2D"/>
<path d="M310.34 255.464C310.267 259.927 332.517 276.238 345.865 273.512C360.057 270.636 342.544 254.936 342.544 254.936L316.389 248.956C316.389 248.956 310.413 250.945 310.34 255.464Z" fill="#00A3FE"/>
<path d="M316.389 248.956C316.462 248.436 316.41 247.907 316.222 247.415C316.045 246.921 315.743 246.48 315.358 246.127C314.015 244.951 312.62 239.589 311.735 240.933C310.86 242.278 311.672 246.557 310.34 247.018C309.007 247.478 316.389 248.956 316.389 248.956Z" fill="#FF7955"/>
<path d="M326.176 153.598H324.864C324.687 153.598 324.521 153.665 324.406 153.785C324.281 153.906 324.219 154.068 324.219 154.238V159.991C324.219 160.162 324.146 160.326 324.021 160.447C323.906 160.567 323.74 160.635 323.563 160.635H323.105C322.928 160.634 322.772 160.566 322.647 160.446C322.532 160.324 322.459 160.161 322.459 159.991V154.238C322.459 154.068 322.386 153.906 322.272 153.785C322.147 153.665 321.98 153.598 321.814 153.598H320.533C320.356 153.598 320.189 153.53 320.075 153.41C319.95 153.288 319.877 153.125 319.877 152.954V152.829C319.877 152.658 319.95 152.494 320.075 152.373C320.189 152.252 320.356 152.185 320.533 152.185H326.176C326.353 152.185 326.509 152.252 326.634 152.373C326.759 152.494 326.822 152.658 326.822 152.829V152.954C326.822 153.125 326.759 153.288 326.634 153.41C326.509 153.53 326.353 153.598 326.176 153.598Z" fill="#00A3FE"/>
<path d="M332.288 156.967H330.206C330.039 156.967 329.872 157.035 329.758 157.155C329.633 157.274 329.571 157.438 329.571 157.608V158.589C329.571 158.759 329.633 158.923 329.758 159.043C329.872 159.164 330.039 159.232 330.206 159.233H332.871C332.954 159.233 333.048 159.25 333.121 159.282C333.204 159.314 333.267 159.362 333.329 159.422C333.392 159.482 333.444 159.552 333.475 159.631C333.506 159.708 333.517 159.792 333.517 159.876V159.991C333.517 160.076 333.506 160.16 333.475 160.238C333.444 160.315 333.392 160.387 333.329 160.447C333.267 160.507 333.204 160.553 333.121 160.586C333.048 160.619 332.954 160.635 332.871 160.635H328.456C328.29 160.635 328.123 160.568 327.998 160.447C327.873 160.326 327.811 160.162 327.811 159.991V152.8C327.811 152.629 327.873 152.465 327.998 152.344C328.123 152.224 328.29 152.156 328.456 152.156H332.861C333.038 152.157 333.194 152.225 333.319 152.346C333.444 152.466 333.506 152.63 333.506 152.8V152.926C333.506 153.096 333.444 153.258 333.319 153.38C333.194 153.5 333.038 153.568 332.861 153.569H330.206C330.039 153.569 329.872 153.636 329.758 153.756C329.633 153.877 329.571 154.04 329.571 154.21V154.928C329.571 155.098 329.633 155.262 329.758 155.383C329.872 155.503 330.039 155.571 330.206 155.572H332.288C332.455 155.572 332.621 155.64 332.746 155.76C332.871 155.88 332.934 156.042 332.934 156.212V156.295C332.944 156.382 332.923 156.469 332.892 156.55C332.861 156.631 332.819 156.706 332.757 156.769C332.694 156.831 332.621 156.882 332.538 156.916C332.465 156.95 332.371 156.968 332.288 156.967Z" fill="#00A3FE"/>
<path d="M338.983 158.412C338.983 158.278 338.962 158.142 338.921 158.014C338.868 157.884 338.785 157.771 338.671 157.687C338.515 157.566 338.338 157.467 338.161 157.391C337.89 157.272 337.609 157.169 337.317 157.082C336.953 156.964 336.588 156.825 336.234 156.665C335.912 156.523 335.599 156.337 335.328 156.115C335.079 155.917 334.87 155.673 334.714 155.395C334.558 155.096 334.485 154.766 334.485 154.43C334.485 154.095 334.558 153.765 334.714 153.464C334.87 153.169 335.089 152.913 335.36 152.717C335.662 152.501 335.995 152.337 336.349 152.235C336.765 152.12 337.192 152.063 337.619 152.066C338.056 152.061 338.494 152.126 338.91 152.26C339.275 152.376 339.608 152.561 339.899 152.803C340.17 153.03 340.378 153.312 340.524 153.63C340.566 153.699 340.586 153.768 340.618 153.835C340.649 153.931 340.659 154.035 340.639 154.135C340.628 154.236 340.587 154.331 340.524 154.414C340.462 154.497 340.389 154.563 340.295 154.61C340.201 154.656 340.097 154.68 340.003 154.68H339.524C339.389 154.679 339.264 154.635 339.15 154.556C339.035 154.476 338.952 154.363 338.91 154.235C338.91 154.235 338.91 154.202 338.91 154.187C338.858 154.039 338.764 153.906 338.65 153.796C338.525 153.683 338.379 153.597 338.212 153.544C338.015 153.479 337.806 153.449 337.588 153.454C337.39 153.451 337.182 153.476 336.994 153.53C336.838 153.573 336.692 153.644 336.567 153.738C336.463 153.822 336.38 153.93 336.318 154.055C336.266 154.174 336.234 154.304 336.234 154.436C336.234 154.583 336.276 154.728 336.349 154.854C336.422 154.98 336.536 155.084 336.661 155.155C337.057 155.388 337.484 155.565 337.921 155.68C338.348 155.806 338.754 155.967 339.15 156.158C339.472 156.311 339.774 156.51 340.035 156.752C340.264 156.961 340.441 157.214 340.576 157.496C340.701 157.792 340.753 158.11 340.753 158.431C340.763 158.775 340.68 159.114 340.534 159.423C340.389 159.708 340.17 159.955 339.91 160.142C339.618 160.353 339.285 160.508 338.931 160.599C338.525 160.712 338.088 160.766 337.661 160.76C337.38 160.76 337.098 160.736 336.817 160.689C336.547 160.641 336.276 160.566 336.016 160.462C335.755 160.371 335.516 160.25 335.287 160.103C335.079 159.954 334.881 159.775 334.714 159.571C334.558 159.359 334.423 159.121 334.339 158.869V158.829C334.308 158.733 334.298 158.632 334.318 158.532C334.329 158.433 334.37 158.34 334.433 158.258C334.495 158.177 334.579 158.112 334.662 158.066C334.756 158.022 334.86 157.998 334.954 157.999H335.412C335.547 157.999 335.682 158.046 335.797 158.131C335.911 158.216 335.995 158.335 336.036 158.47C336.047 158.531 336.068 158.592 336.099 158.65C336.172 158.82 336.286 158.97 336.432 159.085C336.599 159.199 336.776 159.281 336.974 159.326C337.192 159.378 337.421 159.404 337.661 159.402C337.859 159.404 338.056 159.38 338.254 159.33C338.4 159.289 338.535 159.221 338.66 159.129C338.775 159.048 338.858 158.943 338.91 158.822C338.962 158.693 338.993 158.553 338.983 158.412Z" fill="#00A3FE"/>
<path d="M347.698 153.598H346.386C346.209 153.598 346.042 153.665 345.928 153.785C345.803 153.906 345.74 154.068 345.74 154.238V159.991C345.74 160.162 345.667 160.326 345.543 160.447C345.428 160.568 345.261 160.635 345.084 160.635H344.626C344.46 160.634 344.293 160.566 344.168 160.446C344.054 160.324 343.981 160.162 343.981 159.991V154.238C343.981 154.068 343.908 153.906 343.793 153.785C343.668 153.665 343.502 153.598 343.335 153.598H342.065C341.888 153.597 341.732 153.529 341.607 153.409C341.482 153.287 341.419 153.125 341.419 152.954V152.829C341.419 152.742 341.43 152.656 341.461 152.575C341.492 152.494 341.534 152.421 341.596 152.359C341.659 152.296 341.732 152.246 341.815 152.212C341.888 152.178 341.971 152.16 342.065 152.16H347.708C347.885 152.16 348.052 152.227 348.166 152.348C348.291 152.468 348.354 152.633 348.354 152.803V152.929C348.364 153.017 348.343 153.104 348.312 153.186C348.281 153.268 348.239 153.342 348.177 153.404C348.114 153.468 348.041 153.516 347.958 153.55C347.875 153.584 347.791 153.6 347.698 153.598Z" fill="#00A3FE"/>
<path d="M350.571 160.635H350.103C349.936 160.634 349.77 160.566 349.645 160.446C349.53 160.324 349.457 160.162 349.457 159.991V152.8C349.457 152.63 349.53 152.466 349.645 152.346C349.77 152.225 349.936 152.157 350.103 152.156H350.571C350.738 152.156 350.905 152.224 351.03 152.344C351.144 152.465 351.217 152.629 351.217 152.8V159.991C351.217 160.162 351.144 160.326 351.03 160.447C350.905 160.568 350.738 160.635 350.571 160.635Z" fill="#00A3FE"/>
<path d="M359.12 160.635H358.38C358.266 160.635 358.151 160.606 358.058 160.552C357.964 160.498 357.881 160.42 357.829 160.326L355.798 157.018C355.725 156.9 355.611 156.809 355.476 156.758C355.351 156.707 355.205 156.7 355.07 156.738C354.934 156.775 354.82 156.856 354.726 156.967C354.643 157.078 354.601 157.212 354.601 157.352V159.991C354.601 160.162 354.528 160.326 354.403 160.447C354.289 160.568 354.122 160.635 353.945 160.635H353.487C353.32 160.635 353.154 160.568 353.029 160.447C352.904 160.326 352.841 160.162 352.841 159.991V152.8C352.841 152.629 352.904 152.465 353.029 152.344C353.154 152.224 353.32 152.156 353.487 152.156H354.237C354.341 152.157 354.455 152.185 354.549 152.239C354.643 152.294 354.726 152.371 354.788 152.465L356.819 155.78C356.892 155.901 357.006 155.994 357.131 156.046C357.266 156.096 357.412 156.105 357.548 156.067C357.683 156.03 357.797 155.949 357.891 155.837C357.974 155.727 358.016 155.59 358.016 155.45V152.8C358.016 152.63 358.089 152.466 358.214 152.346C358.329 152.225 358.495 152.157 358.662 152.156H359.12C359.297 152.156 359.463 152.224 359.578 152.344C359.703 152.465 359.765 152.629 359.765 152.8V159.991C359.765 160.162 359.703 160.326 359.578 160.447C359.463 160.568 359.297 160.635 359.12 160.635Z" fill="#00A3FE"/>
<path d="M368.043 159.305C368.043 159.395 368.022 159.484 367.991 159.567C367.949 159.648 367.897 159.723 367.824 159.783C367.772 159.837 367.699 159.894 367.626 159.952C367.428 160.104 367.199 160.231 366.97 160.333C366.668 160.463 366.356 160.564 366.033 160.631C365.617 160.715 365.2 160.755 364.784 160.75C364.274 160.756 363.753 160.665 363.274 160.48C362.837 160.307 362.431 160.035 362.108 159.686C361.775 159.313 361.515 158.876 361.358 158.402C361.171 157.84 361.077 157.25 361.088 156.657V156.158C361.077 155.565 361.171 154.976 361.348 154.411C361.504 153.937 361.744 153.499 362.077 153.123C362.379 152.776 362.764 152.504 363.201 152.329C363.67 152.141 364.17 152.048 364.669 152.055C365.159 152.044 365.648 152.113 366.117 152.26C366.491 152.38 366.835 152.577 367.127 152.839C367.397 153.088 367.616 153.39 367.762 153.727C367.803 153.822 367.845 153.919 367.876 154.018C367.907 154.116 367.918 154.218 367.897 154.319C367.887 154.419 367.845 154.514 367.783 154.597C367.72 154.68 367.647 154.747 367.553 154.793C367.46 154.839 367.366 154.863 367.262 154.863H366.856C366.72 154.862 366.585 154.818 366.471 154.738C366.366 154.658 366.283 154.545 366.242 154.418L366.189 154.284C366.117 154.118 366.013 153.967 365.888 153.842C365.752 153.715 365.586 153.618 365.409 153.559C365.19 153.489 364.961 153.456 364.732 153.461C364.461 153.448 364.201 153.503 363.961 153.621C363.722 153.739 363.514 153.917 363.368 154.137C363.014 154.746 362.847 155.446 362.889 156.147V156.657C362.847 157.365 363.024 158.069 363.41 158.668C363.576 158.891 363.795 159.07 364.055 159.189C364.305 159.308 364.586 159.364 364.867 159.351C365.055 159.354 365.242 159.341 365.419 159.312C365.554 159.29 365.69 159.256 365.825 159.21C365.919 159.175 366.013 159.131 366.096 159.078C366.169 159.036 366.221 158.988 366.283 158.934V158.118C366.283 157.947 366.21 157.784 366.096 157.663C365.971 157.542 365.804 157.474 365.638 157.474H365.325C365.159 157.474 364.992 157.407 364.878 157.287C364.753 157.167 364.68 157.004 364.68 156.834C364.68 156.664 364.753 156.5 364.867 156.379C364.992 156.258 365.159 156.19 365.325 156.19H367.408C367.491 156.19 367.574 156.207 367.647 156.239C367.73 156.272 367.803 156.319 367.866 156.379C367.918 156.439 367.97 156.51 368.001 156.588C368.032 156.666 368.053 156.75 368.053 156.834L368.043 159.305Z" fill="#00A3FE"/>
</svg>
