<svg width="72" height="78" viewBox="0 0 72 78" fill="none" xmlns="http://www.w3.org/2000/svg">
<path d="M26.843 14.416C24.479 13.861 22.019 13.861 19.655 14.416C16.559 15.142 14.142 17.559 13.416 20.655C12.861 23.019 12.861 25.479 13.416 27.843C14.142 30.939 16.559 33.357 19.655 34.083C22.019 34.637 24.479 34.637 26.843 34.083C29.939 33.357 32.357 30.939 33.083 27.843C33.637 25.479 33.637 23.019 33.083 20.655C32.357 17.559 29.939 15.142 26.843 14.416Z" fill="#FCA311"/>
<path d="M26.843 14.416C24.479 13.861 22.019 13.861 19.655 14.416C16.559 15.142 14.142 17.559 13.416 20.655C12.861 23.019 12.861 25.479 13.416 27.843C14.142 30.939 16.559 33.357 19.655 34.083C22.019 34.637 24.479 34.637 26.843 34.083C29.939 33.357 32.357 30.939 33.083 27.843C33.637 25.479 33.637 23.019 33.083 20.655C32.357 17.559 29.939 15.142 26.843 14.416Z" fill="url(#paint0_linear_4_2)"/>
<path d="M26.843 41.917C24.479 41.363 22.019 41.363 19.655 41.917C16.559 42.643 14.142 45.061 13.416 48.157C12.861 50.521 12.861 52.9809 13.416 55.3449C14.142 58.4409 16.559 60.858 19.655 61.584C22.019 62.139 24.479 62.139 26.843 61.584C29.939 60.858 32.357 58.4409 33.083 55.3449C33.637 52.9809 33.637 50.521 33.083 48.157C32.357 45.061 29.939 42.643 26.843 41.917Z" fill="#FCA311"/>
<path d="M26.843 41.917C24.479 41.363 22.019 41.363 19.655 41.917C16.559 42.643 14.142 45.061 13.416 48.157C12.861 50.521 12.861 52.9809 13.416 55.3449C14.142 58.4409 16.559 60.858 19.655 61.584C22.019 62.139 24.479 62.139 26.843 61.584C29.939 60.858 32.357 58.4409 33.083 55.3449C33.637 52.9809 33.637 50.521 33.083 48.157C32.357 45.061 29.939 42.643 26.843 41.917Z" fill="url(#paint1_linear_4_2)"/>
<path d="M54.3449 14.416C51.9809 13.861 49.521 13.861 47.157 14.416C44.061 15.142 41.643 17.559 40.917 20.655C40.363 23.019 40.363 25.479 40.917 27.843C41.643 30.939 44.061 33.357 47.157 34.083C49.521 34.637 51.9809 34.637 54.3449 34.083C57.4409 33.357 59.858 30.939 60.584 27.843C61.139 25.479 61.139 23.019 60.584 20.655C59.858 17.559 57.4409 15.142 54.3449 14.416Z" fill="#FCA311"/>
<path d="M54.3449 14.416C51.9809 13.861 49.521 13.861 47.157 14.416C44.061 15.142 41.643 17.559 40.917 20.655C40.363 23.019 40.363 25.479 40.917 27.843C41.643 30.939 44.061 33.357 47.157 34.083C49.521 34.637 51.9809 34.637 54.3449 34.083C57.4409 33.357 59.858 30.939 60.584 27.843C61.139 25.479 61.139 23.019 60.584 20.655C59.858 17.559 57.4409 15.142 54.3449 14.416Z" fill="url(#paint2_linear_4_2)"/>
<path d="M54.3449 41.917C51.9809 41.363 49.521 41.363 47.157 41.917C44.061 42.643 41.643 45.061 40.917 48.157C40.363 50.521 40.363 52.9809 40.917 55.3449C41.643 58.4409 44.061 60.858 47.157 61.584C49.521 62.139 51.9809 62.139 54.3449 61.584C57.4409 60.858 59.858 58.4409 60.584 55.3449C61.139 52.9809 61.139 50.521 60.584 48.157C59.858 45.061 57.4409 42.643 54.3449 41.917Z" fill="#FCA311"/>
<path d="M54.3449 41.917C51.9809 41.363 49.521 41.363 47.157 41.917C44.061 42.643 41.643 45.061 40.917 48.157C40.363 50.521 40.363 52.9809 40.917 55.3449C41.643 58.4409 44.061 60.858 47.157 61.584C49.521 62.139 51.9809 62.139 54.3449 61.584C57.4409 60.858 59.858 58.4409 60.584 55.3449C61.139 52.9809 61.139 50.521 60.584 48.157C59.858 45.061 57.4409 42.643 54.3449 41.917Z" fill="url(#paint3_linear_4_2)"/>
<defs>
<linearGradient id="paint0_linear_4_2" x1="13" y1="13.778" x2="42.245" y2="71.311" gradientUnits="userSpaceOnUse">
<stop stop-color="#09C6F9"/>
<stop offset="1" stop-color="#045DE9"/>
</linearGradient>
<linearGradient id="paint1_linear_4_2" x1="13" y1="13.778" x2="42.245" y2="71.311" gradientUnits="userSpaceOnUse">
<stop stop-color="#09C6F9"/>
<stop offset="1" stop-color="#045DE9"/>
</linearGradient>
<linearGradient id="paint2_linear_4_2" x1="13" y1="13.778" x2="42.245" y2="71.311" gradientUnits="userSpaceOnUse">
<stop stop-color="#09C6F9"/>
<stop offset="1" stop-color="#045DE9"/>
</linearGradient>
<linearGradient id="paint3_linear_4_2" x1="13" y1="13.778" x2="42.245" y2="71.311" gradientUnits="userSpaceOnUse">
<stop stop-color="#09C6F9"/>
<stop offset="1" stop-color="#045DE9"/>
</linearGradient>
</defs>
</svg>
