<svg width="500" height="500" viewBox="0 0 500 500" fill="none" xmlns="http://www.w3.org/2000/svg">
<path d="M107.46 384.26C107.46 384.26 52.84 345.37 37.12 279.16C21.4 212.95 45.39 132.68 90.91 92.16C136.43 51.64 218.36 78.92 254.77 112.85L291.19 146.78C291.19 146.78 325.95 165.78 371.46 164.16C416.97 162.54 457.53 224.58 468.29 273.41C479.05 322.24 453.39 386.78 453.39 386.78L107.46 384.26Z" fill="#DDECFF"/>
<g style="mix-blend-mode:multiply">
<path d="M82.64 394.19C82.64 394.19 44.57 373.5 34.64 325.5C24.71 277.5 67.74 233.64 71.88 209.64C76.02 185.64 66.88 155.85 104.98 132.64C143.08 109.43 210.91 117.78 236.57 112C262.23 106.22 292 66.47 343.33 75.57C394.66 84.67 444.33 111.99 446.77 171.57C449.21 231.15 430.22 232.81 449.26 265.09C468.3 297.37 475.74 319.71 466.64 352.81C457.54 385.91 438.5 395 438.5 395L82.64 394.19Z" fill="#DDECFF"/>
</g>
<g style="mix-blend-mode:multiply">
<path d="M162.12 383.43C159.76 380.95 125.02 311.43 163.7 247.71C202.38 183.99 299.48 191.43 338.15 216.26C376.82 241.09 395.78 273.37 399.73 307.26C403.68 341.15 377.62 394.15 377.62 394.15L162.12 383.43Z" fill="#DDECFF"/>
</g>
<path d="M434.46 234.12H389.84C387.079 234.12 384.84 236.359 384.84 239.12V261.4C384.84 264.161 387.079 266.4 389.84 266.4H434.46C437.221 266.4 439.46 264.161 439.46 261.4V239.12C439.46 236.359 437.221 234.12 434.46 234.12Z" fill="#60A8FF"/>
<path d="M412.15 279.02L419.22 262.26H405.08L412.15 279.02Z" fill="#60A8FF"/>
<path d="M411.98 244.72H424.76V246.59L431.02 242.98L424.76 239.37V241.24H411.98V244.72Z" fill="#223A7A"/>
<path d="M431.02 252.06H418.25V250.2L411.98 253.81L418.25 257.42V255.55H431.02V252.06Z" fill="white"/>
<path d="M404.14 255.35L403.54 255.57C402.372 254.206 401.403 252.685 400.66 251.05C400.038 249.374 399.7 247.607 399.66 245.82L400.1 245.63L397.4 239.17C396.874 239.577 396.43 240.079 396.09 240.65C394.56 243.24 394.71 247.2 396.25 251.07C397.79 254.94 399.43 258.4 402.43 260.57C403.047 261.081 403.762 261.461 404.53 261.688C405.298 261.914 406.104 261.983 406.9 261.89L404.14 255.35Z" fill="#223A7A"/>
<path d="M406.08 254.59L405.24 254.89L408.01 261.51C408.297 261.416 408.575 261.295 408.84 261.15C409.184 260.963 409.448 260.656 409.583 260.288C409.717 259.92 409.713 259.515 409.57 259.15L408.13 255.52C407.978 255.128 407.678 254.811 407.295 254.637C406.911 254.463 406.475 254.446 406.08 254.59V254.59Z" fill="#223A7A"/>
<path d="M399.49 238C399.116 238.139 398.755 238.309 398.41 238.51L401.17 245.11L402.1 244.73C402.485 244.564 402.79 244.257 402.954 243.871C403.118 243.486 403.127 243.052 402.98 242.66L401.53 239C401.389 238.599 401.096 238.27 400.715 238.082C400.333 237.895 399.893 237.866 399.49 238V238Z" fill="#223A7A"/>
<path d="M149.22 372.26V297.78C149.22 297.78 148.39 277.71 158.95 271.92C169.51 266.13 213.95 269.23 213.95 269.23V372.23L149.22 372.26Z" fill="#1C83FF"/>
<path d="M227.88 199.5C227.88 199.5 225.19 222.06 224.15 223.92L223.15 225.78L218 229.3C218 229.3 227.93 243.37 240.13 245.64C252.33 247.91 251.31 240.64 251.31 240.64L249.44 236.7L251.93 215.19C251.93 215.19 229.74 205.09 227.88 199.5Z" fill="#FF9D8C"/>
<path d="M211.53 231.16L219.6 227.64C219.6 227.64 224.77 236.12 236.77 241.09C248.77 246.06 248.98 243.16 249.6 241.09C249.94 239.649 249.867 238.141 249.39 236.74L250.28 229.5L255.08 231.1L271.74 365.85L228.91 367.92L211.53 231.16Z" fill="white"/>
<path d="M251.05 229.64C251.05 229.64 253.95 236.33 256.64 252.06C259.33 267.79 261.81 294.26 262.43 312.47C263.05 330.68 263.43 372.26 263.43 372.26H317.43C318.05 372.26 321.78 351.78 321.78 351.78C321.78 351.78 298.22 331.57 297 328.26C296.17 326.06 296.59 285.16 293.07 266.33C289.55 247.5 285 243.71 275.46 239C265.63 234.17 251.05 229.64 251.05 229.64Z" fill="#223A7A"/>
<path d="M279.19 348.56C279.057 348.56 278.93 348.507 278.836 348.414C278.743 348.32 278.69 348.193 278.69 348.06C278.69 346.58 278.42 325.56 278.17 305.23C277.92 284.9 277.65 263.89 277.65 262.4C277.65 262.267 277.703 262.14 277.796 262.046C277.89 261.953 278.017 261.9 278.15 261.9C278.283 261.9 278.41 261.953 278.504 262.046C278.597 262.14 278.65 262.267 278.65 262.4C278.65 263.88 278.92 284.9 279.17 305.22C279.42 325.54 279.69 346.57 279.69 348.06C279.687 348.192 279.634 348.317 279.541 348.411C279.447 348.504 279.322 348.557 279.19 348.56V348.56Z" fill="#8593B6"/>
<path d="M171.6 343.5L171.19 372.26H234.08C234.08 372.26 236.77 347.85 235.74 345.57C234.71 343.29 171.6 343.5 171.6 343.5Z" fill="#223A7A"/>
<g style="mix-blend-mode:multiply">
<g style="mix-blend-mode:multiply">
<path d="M241.6 223.3C244.276 225.312 247.244 226.903 250.4 228.02L251.88 215.23C251.88 215.23 235.25 207.61 229.61 201.94C230.79 208.38 233.69 216.91 241.6 223.3Z" fill="#8E9BBB"/>
</g>
</g>
<path d="M271.33 157.5C274.114 162.631 275.87 168.256 276.5 174.06C277.33 183.16 276.5 206.54 269.05 216.47C261.6 226.4 246.05 223.47 239.05 217.47C232.59 211.97 226.22 205.89 224.57 193.89C222.92 181.89 228.08 159.13 242.77 154.37C257.46 149.61 271.33 157.5 271.33 157.5Z" fill="#FF9D8C"/>
<path d="M290 359.26C290 359.26 289.27 359.26 288.16 359.26H287.31L283.63 359.16H282.75C281.45 359.16 280.34 359.29 279.3 359.23C279.08 359.23 278.76 359.23 278.5 359.23C278.39 359.239 278.28 359.239 278.17 359.23C277.689 359.121 277.227 358.939 276.8 358.69C269.782 356.904 262.58 355.945 255.34 355.83C246.1 355.83 237.81 356.5 236.46 355.37C235.11 354.24 234.28 342.61 242.17 341.85L251.87 345.53C251.87 345.53 274.02 342.9 282.14 348.89C290.26 354.88 290 359.26 290 359.26Z" fill="#FF9D8C"/>
<path d="M279.26 359.16C279.04 359.16 278.72 359.16 278.46 359.16C278.206 358.759 277.922 358.378 277.61 358.02C275.11 355.47 269.07 353.82 266.88 353.29C266.784 353.266 266.701 353.206 266.649 353.122C266.596 353.038 266.579 352.937 266.6 352.84C266.612 352.791 266.633 352.745 266.662 352.705C266.692 352.665 266.729 352.63 266.772 352.604C266.815 352.578 266.862 352.561 266.912 352.553C266.961 352.546 267.011 352.548 267.06 352.56C270.25 353.33 277.06 355.3 278.94 358.56C279 358.65 279.16 359 279.26 359.16Z" fill="#223A7A"/>
<path d="M283.62 359.11C283.33 359.11 283.03 359.11 282.74 359.11C280.01 354.11 275.55 352.71 270.03 350.93L269.7 350.82C269.653 350.804 269.61 350.779 269.573 350.747C269.536 350.715 269.506 350.675 269.484 350.631C269.462 350.587 269.449 350.539 269.446 350.49C269.443 350.441 269.449 350.392 269.465 350.345C269.481 350.298 269.506 350.255 269.538 350.218C269.57 350.181 269.61 350.151 269.654 350.129C269.698 350.107 269.746 350.094 269.795 350.091C269.844 350.088 269.893 350.094 269.94 350.11L270.26 350.22C276.09 352.06 280.79 353.56 283.62 359.11Z" fill="#223A7A"/>
<path d="M288.15 359.22H287.3C285.795 356.526 283.734 354.183 281.255 352.345C278.776 350.507 275.935 349.217 272.92 348.56C272.87 348.553 272.822 348.536 272.779 348.509C272.736 348.483 272.699 348.448 272.67 348.407C272.641 348.366 272.621 348.319 272.61 348.27C272.6 348.22 272.6 348.169 272.61 348.12C272.632 348.025 272.688 347.942 272.767 347.887C272.847 347.831 272.944 347.808 273.04 347.82C280.51 349.22 286.54 355.31 288.15 359.22Z" fill="#223A7A"/>
<path d="M229.53 183.68C232.883 181.753 235.584 178.87 237.29 175.4C239.202 171.841 240.163 167.849 240.08 163.81C240.08 163.81 245.88 162.88 254.57 165.47C263.26 168.06 273.57 171.57 282.29 166.61C291.01 161.65 290.98 153.68 286.74 150.37C281.99 146.66 272.57 148.92 272.57 148.92C272.57 148.92 276.19 145.4 274.22 143.33C272.25 141.26 265.12 143.95 265.12 143.95C265.12 143.95 256.43 137.02 239.98 137.85C223.53 138.68 215.67 150.16 214.74 163C213.81 175.84 218.46 188.65 218.46 188.65L229.53 183.68Z" fill="#223A7A"/>
<g style="mix-blend-mode:multiply">
<g style="mix-blend-mode:multiply">
<path d="M262.9 186.79C261.97 189.08 261.99 191.79 261.76 194.19C261.58 196.09 261.23 198.3 262.97 199.58C263.8 200.19 267.72 201.84 265.7 203.18C264.774 203.565 263.758 203.679 262.77 203.51C262.16 203.51 261.55 203.51 260.95 203.41C260.35 203.31 259.66 203.17 259.02 203.16C258.939 203.163 258.861 203.192 258.798 203.242C258.735 203.293 258.689 203.362 258.668 203.44C258.647 203.518 258.651 203.601 258.68 203.677C258.709 203.752 258.762 203.816 258.83 203.86C260 204.468 261.302 204.777 262.62 204.76C263.698 204.882 264.788 204.691 265.76 204.21C266.115 204.082 266.432 203.868 266.684 203.587C266.935 203.306 267.113 202.967 267.2 202.6C267.203 202.156 267.09 201.718 266.873 201.331C266.655 200.943 266.341 200.619 265.96 200.39C265.18 199.81 264.22 199.54 263.43 198.97C262.33 198.19 262.43 196.87 262.5 195.64C262.68 192.7 263.36 189.81 263.62 186.88C263.62 186.44 263.04 186.44 262.9 186.79V186.79Z" fill="#8E9BBB"/>
</g>
</g>
<path d="M271.36 193.66C271.05 195.41 269.78 196.66 268.53 196.42C267.28 196.18 266.53 194.6 266.81 192.86C267.09 191.12 268.39 189.86 269.64 190.1C270.89 190.34 271.67 191.92 271.36 193.66Z" fill="#223A7A"/>
<path d="M255.53 192.28C255.25 194.16 253.92 195.53 252.53 195.28C251.14 195.03 250.3 193.39 250.58 191.51C250.86 189.63 252.19 188.27 253.58 188.51C254.97 188.75 255.81 190.4 255.53 192.28Z" fill="#223A7A"/>
<path d="M267.67 186.48C268.67 186.64 269.62 186.48 270.59 186.54L271.29 186.61H271.21H271.36L271.73 186.68C271.93 186.73 272.13 186.81 272.34 186.86C272.534 186.906 272.731 186.933 272.93 186.94L273.25 186.89H273.05C273.183 186.898 273.317 186.898 273.45 186.89C273.718 186.809 273.944 186.627 274.082 186.383C274.22 186.139 274.259 185.852 274.19 185.58C274.149 185.427 274.077 185.285 273.98 185.16C273.98 185.1 273.89 185.05 273.85 185L273.97 185.13L273.84 184.96C273.785 184.87 273.71 184.795 273.62 184.74L273.38 184.56C273.106 184.389 272.805 184.267 272.49 184.2C271.908 184.054 271.31 183.977 270.71 183.97C270.121 183.976 269.533 184.023 268.95 184.11C268.409 184.172 267.891 184.364 267.44 184.67C267.272 184.772 267.138 184.921 267.054 185.099C266.971 185.277 266.941 185.476 266.97 185.67C266.996 185.859 267.076 186.037 267.2 186.182C267.324 186.328 267.487 186.434 267.67 186.49V186.48Z" fill="#223A7A"/>
<path d="M256.64 183.71C256.509 183.63 256.372 183.56 256.23 183.5C256.12 183.45 255.8 183.28 256.04 183.41L255.77 183.27C255.371 183.074 254.952 182.923 254.52 182.82C253.573 182.584 252.591 182.516 251.62 182.62C250.608 182.699 249.626 183.007 248.75 183.52C248.617 183.592 248.493 183.679 248.38 183.78L248.18 184.05V183.96C248.045 184.054 247.935 184.18 247.86 184.326C247.785 184.473 247.747 184.635 247.75 184.8C247.75 184.954 247.792 185.105 247.871 185.237C247.95 185.369 248.064 185.478 248.2 185.55C248.358 185.617 248.528 185.651 248.7 185.651C248.872 185.651 249.042 185.617 249.2 185.55H248.68C248.937 185.605 249.203 185.605 249.46 185.55C249.46 185.55 249.74 185.48 249.56 185.55C249.38 185.62 249.84 185.55 249.89 185.55C249.94 185.55 250.26 185.55 249.89 185.55H250.07L250.54 185.5C251.22 185.5 251.9 185.42 252.59 185.4C253.28 185.38 253.87 185.4 254.51 185.4H255.32C255.47 185.4 255.41 185.4 255.32 185.4H255.49L255.83 185.51C256.053 185.561 256.287 185.535 256.492 185.435C256.698 185.335 256.863 185.167 256.96 184.96C257.043 184.746 257.049 184.509 256.978 184.291C256.907 184.072 256.763 183.885 256.57 183.76L256.64 183.71Z" fill="#223A7A"/>
<path d="M261.55 212.47C262.576 210.571 264.225 209.084 266.22 208.26C264.49 208.08 256.31 207.33 254.22 208.5C251.91 209.81 254.65 215.09 259.43 215.35C259.898 215.375 260.368 215.349 260.83 215.27C260.87 214.296 261.116 213.342 261.55 212.47Z" fill="#223A7A"/>
<path d="M223.74 201.37C223.74 201.37 224.57 204.57 229.33 208.3C232.945 210.912 236.863 213.074 241 214.74L241.55 212.33C241.55 212.33 234.41 209.23 231.1 205.81C227.79 202.39 227.38 200.54 227.38 200.54L223.74 201.37Z" fill="#DEE1EB"/>
<path d="M242.36 210.55C243.802 210.466 245.227 210.905 246.371 211.787C247.516 212.669 248.303 213.934 248.59 215.35C248.86 217.35 247.02 219.51 242.72 217.58C237.37 215.18 238.53 210.72 242.36 210.55Z" fill="#223A7A"/>
<path d="M226.74 177.68C226.74 177.68 228.39 165.79 236.36 157.68C251.57 142.27 264.5 143.2 264.5 143.2C264.5 143.2 264.39 141.03 259.5 139.37C254.94 137.82 252.88 138.65 252.88 138.65C252.88 138.65 240.36 139.65 229.81 151.37C219.26 163.09 218.15 178 218.15 178L226.74 177.68Z" fill="#DEE1EB"/>
<path d="M225.6 176.23C215.6 174.54 210.08 182.33 209.67 190.23C209.26 198.13 215 204 222.6 203.43C239.77 202.09 237.81 178.3 225.6 176.23Z" fill="white"/>
<path d="M220.64 195.79C219.383 195.809 218.145 195.479 217.065 194.837C215.984 194.194 215.103 193.264 214.52 192.15C213.851 190.944 213.525 189.578 213.576 188.2C213.627 186.821 214.054 185.483 214.81 184.33C214.838 184.289 214.873 184.254 214.914 184.227C214.955 184.2 215.001 184.182 215.049 184.172C215.098 184.163 215.147 184.163 215.195 184.173C215.244 184.183 215.289 184.202 215.33 184.23C215.371 184.258 215.406 184.293 215.433 184.334C215.46 184.375 215.478 184.421 215.488 184.469C215.497 184.518 215.497 184.567 215.487 184.615C215.477 184.664 215.458 184.709 215.43 184.75C214.758 185.785 214.38 186.982 214.336 188.215C214.292 189.448 214.584 190.67 215.18 191.75C215.708 192.779 216.523 193.633 217.525 194.209C218.528 194.786 219.675 195.06 220.83 195C221.906 194.996 222.965 194.727 223.912 194.216C224.859 193.704 225.666 192.967 226.26 192.07C226.958 190.993 227.395 189.767 227.537 188.492C227.68 187.216 227.523 185.925 227.08 184.72C226.669 183.589 225.904 182.621 224.898 181.96C223.893 181.299 222.701 180.98 221.5 181.05C221.451 181.057 221.402 181.054 221.354 181.042C221.307 181.03 221.262 181.008 221.223 180.978C221.184 180.948 221.151 180.911 221.126 180.868C221.102 180.826 221.086 180.779 221.08 180.73C221.069 180.632 221.095 180.534 221.155 180.455C221.215 180.377 221.303 180.325 221.4 180.31C222.773 180.204 224.143 180.553 225.298 181.303C226.453 182.053 227.328 183.163 227.79 184.46C228.265 185.773 228.431 187.178 228.275 188.565C228.119 189.953 227.645 191.285 226.89 192.46C226.23 193.45 225.338 194.263 224.293 194.831C223.247 195.399 222.08 195.704 220.89 195.72L220.64 195.79Z" fill="#818FB3"/>
<path d="M213.39 228.26C213.39 228.26 183.19 235.71 172.64 247.71C162.09 259.71 157.12 318.88 156.91 329.85C156.7 340.82 164.36 345.37 168.91 348.47C173.46 351.57 193.53 357.16 209.67 357.99C225.81 358.82 241.12 357.99 241.12 357.99C241.307 354.954 242.136 351.993 243.55 349.3C245.85 344.5 248.77 343.5 248.77 343.5L234.91 338.5C234.91 338.5 232.48 295 228.7 274C224.36 249.78 213.39 228.26 213.39 228.26Z" fill="#223A7A"/>
<path d="M263.46 331.59C263.394 331.603 263.326 331.603 263.26 331.59C263.139 331.535 263.046 331.435 262.999 331.312C262.952 331.188 262.956 331.051 263.01 330.93C265.84 324.54 268.77 312.01 270.42 303.21L270.56 302.5C271.06 299.91 271.68 296.69 270.44 294.5C269.8 293.37 268.37 290.91 267 288.55C265.63 286.19 264.23 283.78 263.85 283.09C263.12 281.74 265.42 278.09 268.74 273.18C269.63 271.84 270.41 270.69 270.86 269.91C272.05 267.91 271.26 265.98 270.35 263.81L270 263C269.18 261 268.24 258.94 267.33 257L266.22 254.58C265.73 253.51 265.22 252.43 264.75 251.32C261.889 244.536 258.633 237.924 255 231.52C254.934 231.404 254.916 231.267 254.949 231.138C254.983 231.009 255.066 230.899 255.18 230.83C255.236 230.796 255.299 230.774 255.364 230.765C255.428 230.755 255.495 230.759 255.558 230.776C255.621 230.793 255.681 230.822 255.733 230.862C255.785 230.903 255.828 230.953 255.86 231.01C259.534 237.435 262.83 244.07 265.73 250.88L267.2 254.13L268.31 256.54C269.22 258.54 270.16 260.54 271 262.61L271.31 263.35C272.24 265.57 273.2 267.86 271.77 270.35C271.3 271.16 270.52 272.35 269.61 273.68C267.88 276.26 264.27 281.63 264.77 282.55C265.14 283.23 266.48 285.55 267.9 287.99C269.32 290.43 270.72 292.82 271.35 293.99C272.77 296.53 272.11 299.94 271.58 302.69L271.44 303.39C270.84 306.6 267.65 323 263.96 331.33C263.912 331.419 263.839 331.491 263.75 331.537C263.661 331.584 263.56 331.602 263.46 331.59Z" fill="#8593B6"/>
<path d="M234 333.35C233.934 333.351 233.869 333.338 233.809 333.312C233.749 333.286 233.695 333.248 233.65 333.2C231.29 330.83 219.96 311.2 219.11 307.51C218.65 305.51 219.81 300.36 220.93 295.4C221.8 291.56 222.7 287.59 222.45 286.52C222.06 284.91 219.16 282.52 216.36 280.25C212.97 277.48 209.47 274.62 208.79 272.04C208.02 269.11 208.68 250.78 209.12 238.65C209.27 234.28 209.4 230.84 209.4 229.65C209.4 229.517 209.453 229.39 209.546 229.296C209.64 229.203 209.767 229.15 209.9 229.15C210.033 229.15 210.16 229.203 210.254 229.296C210.347 229.39 210.4 229.517 210.4 229.65C210.4 230.89 210.27 234.35 210.12 238.72C209.71 250.06 209.03 269.04 209.76 271.83C210.36 274.09 213.88 276.97 216.99 279.52C220.1 282.07 222.99 284.39 223.42 286.32C223.73 287.62 222.88 291.32 221.91 295.66C220.91 300.29 219.68 305.52 220.09 307.33C220.92 310.94 232.09 330.21 234.36 332.54C234.407 332.586 234.444 332.64 234.469 332.7C234.494 332.76 234.507 332.825 234.507 332.89C234.507 332.955 234.494 333.02 234.469 333.08C234.444 333.14 234.407 333.194 234.36 333.24C234.311 333.282 234.253 333.314 234.191 333.333C234.13 333.352 234.064 333.357 234 333.35V333.35Z" fill="#8593B6"/>
<path d="M193.33 324.76H193.26C193.194 324.751 193.131 324.73 193.073 324.696C193.016 324.663 192.965 324.618 192.925 324.565C192.885 324.512 192.856 324.452 192.84 324.387C192.823 324.323 192.82 324.256 192.83 324.19C193.2 321.59 198.94 269.79 199.2 265.82C199.209 265.687 199.271 265.564 199.371 265.477C199.472 265.389 199.602 265.346 199.735 265.355C199.868 265.364 199.991 265.426 200.078 265.526C200.166 265.627 200.209 265.757 200.2 265.89C199.93 269.89 194.2 321.73 193.82 324.33C193.803 324.448 193.745 324.557 193.655 324.636C193.565 324.715 193.45 324.759 193.33 324.76V324.76Z" fill="#8593B6"/>
<path d="M234.5 338.83C234.437 338.844 234.373 338.844 234.31 338.83C233.04 338.32 227.42 336.42 220.31 334.02C205.95 329.18 186.31 322.55 182.54 320.61C182.423 320.546 182.336 320.44 182.297 320.313C182.258 320.186 182.269 320.048 182.33 319.93C182.392 319.814 182.497 319.727 182.622 319.688C182.747 319.648 182.883 319.66 183 319.72C186.67 321.63 207.11 328.52 220.62 333.08C227.75 335.48 233.39 337.38 234.69 337.91C234.812 337.961 234.908 338.058 234.959 338.179C235.009 338.301 235.01 338.438 234.96 338.56C234.916 338.643 234.849 338.712 234.768 338.76C234.687 338.808 234.594 338.832 234.5 338.83Z" fill="#8593B6"/>
<path d="M227.59 359.46C214.96 359.46 190.46 357.18 171.85 350.6C171.784 350.578 171.724 350.544 171.671 350.499C171.619 350.454 171.576 350.399 171.545 350.337C171.514 350.275 171.495 350.208 171.49 350.139C171.485 350.07 171.493 350.001 171.515 349.935C171.537 349.869 171.571 349.809 171.616 349.756C171.661 349.704 171.716 349.661 171.778 349.63C171.84 349.599 171.907 349.58 171.976 349.575C172.045 349.57 172.114 349.578 172.18 349.6C195.69 357.92 228.58 359.34 234.7 357.97C234.766 357.956 234.834 357.954 234.9 357.966C234.966 357.978 235.029 358.002 235.086 358.039C235.142 358.075 235.191 358.122 235.23 358.177C235.268 358.232 235.296 358.294 235.31 358.36C235.324 358.426 235.326 358.494 235.314 358.56C235.302 358.626 235.278 358.689 235.241 358.746C235.205 358.802 235.158 358.851 235.103 358.89C235.048 358.928 234.986 358.956 234.92 358.97C232.497 359.36 230.043 359.524 227.59 359.46V359.46Z" fill="#8593B6"/>
<path d="M83 235.24C86.92 238.69 91.89 240.9 95.33 244.89C96.69 246.46 97.9 248.13 99.16 249.78C100.08 250.98 102.52 252.96 102.92 254.47C103.09 255.13 103.05 254.23 102.92 253.57V253.49C102.58 250.44 102.33 247.38 102.22 244.31C102.11 241.24 102.31 238.18 102.12 235.12C101.84 230.82 100.5 226.64 96.98 223.94C95.26 222.63 93.04 221.82 91.46 220.36C89.88 218.9 90.56 217.36 91.46 215.83C92.4148 214.438 93.1407 212.902 93.61 211.28C93.8443 209.359 93.3793 207.417 92.3 205.81C90.25 202.37 85.7 198.53 81.4 199.05C77.81 199.48 77.4 203.62 77.46 206.5C77.52 209.38 77.78 212.1 77.81 214.91C77.84 217.72 77.35 220.61 77.31 223.48C77.12 228.36 79.37 232.08 83 235.24Z" fill="#6BAEFF"/>
<path d="M119.41 280C120.477 277.418 121.775 274.938 123.29 272.59C125.41 269.34 127.75 266.17 129.17 262.54C130.59 258.91 130.41 254.84 130.55 250.93C130.66 248.06 131.55 245.19 131.28 242.3C131.17 240.92 130.37 238.69 128.59 238.91C127.19 239.09 126.37 240.82 125.83 241.91C124.952 243.862 124.194 245.866 123.56 247.91C123.29 248.7 123.03 249.5 122.69 250.26C122.49 250.7 121.85 251.78 121.26 251.64C120.26 251.38 121.16 247.23 121.26 246.5C122.02 242.81 123.17 239.38 123.32 235.58C123.55 230.07 123.13 223.51 117.74 220.5C116.33 219.71 114.55 219.24 113.21 220.42C111.87 221.6 111.51 223.6 111.32 225.25C110.72 230.34 111.91 235.16 113.55 239.94C114.89 243.94 116.49 247.94 116.61 252.2C116.72 256.27 114.61 259.87 113.61 263.72C112.597 267.414 112.172 271.244 112.35 275.07C112.35 277.55 112.43 280.01 112.61 282.49C112.78 284.77 112.98 287.04 113.26 289.31C113.26 289.77 113.36 290.25 113.43 290.73C112.55 288.62 112.24 286.21 111.52 284.09C110.23 280.33 108.74 276.64 107.52 272.86C106.576 269.71 105.464 266.612 104.19 263.58C102.92 260.77 101.4 257.79 99.04 255.72C97.66 254.448 95.8564 253.736 93.98 253.72C92.793 253.816 91.6234 254.065 90.5 254.46C89.8704 254.678 89.1956 254.731 88.5395 254.616C87.8833 254.5 87.2675 254.22 86.75 253.8C82.89 250.8 81.75 245.51 78.86 241.8C76.76 239 71.7 234.23 68 237.28C66 238.9 65.48 242.04 65.59 244.44C65.8586 247.416 66.8921 250.271 68.59 252.73C70.26 255.41 72.41 257.81 73.95 260.56C74.7646 262.092 75.0793 263.84 74.85 265.56C74.5871 267.252 74.6894 268.981 75.15 270.63C76.92 275.63 82.45 274.94 86.75 275.07C89.8367 275.135 92.898 275.644 95.84 276.58C97.387 277.055 98.7969 277.896 99.9509 279.031C101.105 280.165 101.969 281.561 102.47 283.1C103.32 285.46 103.78 288.1 105.39 290.15C106.156 291.078 107.133 291.809 108.24 292.28C109.92 293.02 115.03 293.34 115.07 292.88C115.343 291.27 115.789 289.694 116.4 288.18C117.26 285.42 118.28 282.71 119.41 280Z" fill="#6BAEFF"/>
<path d="M143.14 279.08C142.7 276.21 142.78 273.08 141.42 270.43C141.395 270.387 141.362 270.349 141.322 270.318C141.283 270.287 141.237 270.265 141.189 270.252C141.141 270.239 141.09 270.236 141.041 270.242C140.991 270.249 140.943 270.265 140.9 270.29C139.9 270.83 139.9 272.4 139.8 273.36C139.67 274.96 139.8 276.56 139.57 278.15C139.235 280.989 138.563 283.779 137.57 286.46C137.063 287.829 136.232 289.053 135.146 290.029C134.061 291.005 132.755 291.702 131.34 292.06C129.391 292.509 127.545 293.324 125.9 294.46C124.496 295.653 123.398 297.165 122.7 298.87C120.7 303.38 119.7 308.41 118.81 313.23C118.18 316.47 117.67 319.73 116.88 322.94C116.017 326.125 115.323 329.352 114.8 332.61C114.72 332.78 114.64 332.94 114.57 333.11C114.36 333.6 115.13 333.86 115.39 333.46C118.5 328.67 122.29 324.38 127.45 321.75C129.78 320.56 132.88 320.31 134.83 318.44C136.31 317.02 136.51 314.85 136.29 312.91C136 310.37 134.78 308.28 133.51 306.12C132.81 304.93 131.99 303.65 132.27 302.21C132.459 301.552 132.781 300.941 133.217 300.413C133.652 299.884 134.191 299.451 134.8 299.14C136.94 297.81 139.45 297.21 141.21 295.29C142.819 293.524 143.778 291.264 143.93 288.88C144.032 285.594 143.767 282.307 143.14 279.08V279.08Z" fill="#6BAEFF"/>
<path d="M100.77 295.59C98.0213 292.082 94.7218 289.042 91 286.59C89 285.27 84.33 282.67 83.38 286.59C82.83 288.87 85.06 291.11 86.53 292.54C88.74 294.69 91.29 296.54 93.15 299.02C90.85 299.76 88.44 299.9 86.43 301.5C84.06 303.39 82.99 307.03 85.35 309.35C86.5714 310.399 87.9521 311.246 89.44 311.86C91.3 312.75 93.19 313.57 95.09 314.36C99.2 316.08 103.36 317.82 106.86 320.63C110.36 323.44 113.79 328.34 114.07 333.01C114.07 333.46 113.93 333.01 114.19 332.85C114.34 332.98 114.83 332.74 114.83 332.48C114.838 325.633 113.421 318.86 110.67 312.59C108.059 306.549 104.735 300.842 100.77 295.59V295.59Z" fill="#6BAEFF"/>
<path d="M91.3 231C92.82 234.14 94.4 237.2 96.08 240.26C97.7562 243.159 99.2394 246.166 100.52 249.26C102.01 253.13 103.52 256.94 105.14 260.78C106.796 264.761 108.222 268.835 109.41 272.98C111.741 281.093 113.357 289.395 114.24 297.79C114.685 302.051 114.855 306.337 114.75 310.62C114.66 313.96 114.28 317.27 113.97 320.62C113.567 324.085 113.473 327.579 113.69 331.06C113.94 333.96 114.4 337.41 116.69 339.48C116.78 339.559 116.895 339.605 117.016 339.609C117.136 339.613 117.254 339.576 117.349 339.502C117.445 339.429 117.512 339.325 117.54 339.208C117.567 339.091 117.553 338.968 117.5 338.86C114.82 333.37 114.97 327.38 115.5 321.42C115.79 318.14 116.18 314.87 116.29 311.57C116.42 307.369 116.28 303.163 115.87 298.98C115.034 290.761 113.516 282.627 111.33 274.66C110.231 270.586 108.895 266.579 107.33 262.66C105.78 258.72 103.98 254.88 102.47 250.92C99.74 243.75 95.57 237.4 91.89 230.72C91.7 230.37 91.2 230.72 91.36 231.03L91.3 231Z" fill="#43588E"/>
<path d="M114.37 289.64C114.8 284.42 115.26 279.4 117.02 274.42C117.84 272.1 118.84 269.84 119.63 267.51C120.28 265.58 121.26 262.94 120.76 260.89C120.749 260.838 120.721 260.792 120.68 260.759C120.639 260.726 120.588 260.708 120.535 260.708C120.482 260.708 120.431 260.726 120.39 260.759C120.349 260.792 120.321 260.838 120.31 260.89C119.97 262.06 120.01 263.34 119.76 264.54C119.523 265.706 119.219 266.858 118.85 267.99C118.08 270.4 117.07 272.71 116.19 275.09C114.443 279.731 113.697 284.69 114 289.64C114 289.688 114.019 289.734 114.053 289.767C114.086 289.801 114.132 289.82 114.18 289.82C114.228 289.82 114.274 289.801 114.307 289.767C114.341 289.734 114.36 289.688 114.36 289.64H114.37Z" fill="#43588E"/>
<path d="M84.12 259.65C86.19 264.65 92.42 264.94 96.96 266.06C98.5087 266.481 99.9572 267.209 101.22 268.2C102.482 269.191 103.533 270.426 104.31 271.83C106.123 275.008 107.531 278.401 108.5 281.93C108.5 281.93 108.57 281.93 108.56 281.93C107.29 275.93 105.48 268.71 99.29 265.93C94.29 263.69 87.81 264.81 84.64 259.46C84.48 259.2 84 259.37 84.12 259.68V259.65Z" fill="#43588E"/>
<path d="M111.09 288.85C111.34 289.18 111.56 289.53 111.82 289.85C111.938 290.013 112.076 290.161 112.23 290.29C112.386 290.448 112.59 290.55 112.81 290.58C112.832 290.581 112.853 290.576 112.872 290.566C112.891 290.556 112.907 290.541 112.919 290.523C112.93 290.504 112.936 290.483 112.936 290.462C112.936 290.44 112.931 290.419 112.92 290.4C112.793 290.246 112.645 290.112 112.48 290L112.04 289.61C111.75 289.33 111.49 289.03 111.2 288.75C111.2 288.7 111.04 288.75 111.09 288.84V288.85Z" fill="#43588E"/>
<path d="M98.14 304.73C101.76 307.675 104.953 311.108 107.63 314.93C108.881 316.764 110.033 318.663 111.08 320.62C112.138 322.761 113.073 324.962 113.88 327.21C113.94 327.38 114.25 327.38 114.23 327.21C113.73 322.5 110.75 318.47 108.36 314.55C107.091 312.596 105.601 310.794 103.92 309.18C102.254 307.407 100.426 305.793 98.46 304.36C98.22 304.19 97.9 304.58 98.14 304.78V304.73Z" fill="#43588E"/>
<path d="M126.59 299.18C124.87 300.18 124.82 302.88 124.78 304.61C124.72 307.95 125.54 311.08 124.08 314.26C122.76 317.13 120.65 319.53 118.98 322.19C117.43 324.69 115.9 327.88 115.98 330.88C115.98 331.06 116.25 331.15 116.33 330.98C116.852 329.562 117.287 328.112 117.63 326.64C118.127 325.056 118.84 323.548 119.75 322.16C121.35 319.68 123.31 317.43 124.61 314.76C125.91 312.09 125.77 309.18 125.68 306.14C125.62 304.2 125.43 301.08 126.99 299.64C127.24 299.41 126.93 299.03 126.64 299.18H126.59Z" fill="#43588E"/>
<path d="M115.08 331.19C108.15 331.1 95 331 95 331L98.26 355.26C98.616 357.9 99.9182 360.322 101.925 362.074C103.931 363.827 106.506 364.792 109.17 364.79H121.1C123.763 364.79 126.335 363.824 128.339 362.071C130.343 360.319 131.644 357.899 132 355.26L135.22 331C135.22 331 122 331.1 115.08 331.19Z" fill="white"/>
<path d="M450.19 286.61L410.64 364.95L295.32 365.78L330.91 285.5L450.19 286.61Z" fill="#F6F7FA"/>
<path d="M218.8 365.29V359.02H293.44L327.79 283.71H447.19L450.19 286.61H333.57L297.88 365.23C297.88 365.23 218.8 365.08 218.8 365.29Z" fill="#D9DEE8"/>
<path d="M390.31 329.84C389.01 333.75 381.94 336.76 374.52 336.58C367.1 336.4 362.14 333.08 363.44 329.17C364.74 325.26 371.82 322.24 379.24 322.43C386.66 322.62 391.61 325.93 390.31 329.84Z" fill="#D9DEE8"/>
<path d="M297.88 365.73C297.807 365.728 297.736 365.711 297.67 365.68C297.55 365.625 297.456 365.525 297.409 365.402C297.362 365.278 297.366 365.141 297.42 365.02L333.24 286.11H450.24C450.373 286.11 450.5 286.163 450.594 286.256C450.687 286.35 450.74 286.477 450.74 286.61C450.737 286.742 450.684 286.868 450.591 286.961C450.498 287.054 450.372 287.107 450.24 287.11H333.89L298.33 365.44C298.291 365.527 298.228 365.6 298.148 365.652C298.068 365.703 297.975 365.731 297.88 365.73V365.73Z" fill="white"/>
<path d="M213.6 371.23H76.43V401.64H213.6V371.23Z" fill="#596B9B"/>
<path d="M459.62 371.23H212.82V401.64H459.62V371.23Z" fill="#7A89AF"/>
<g style="mix-blend-mode:multiply">
<path d="M213.6 371.23H212.82H76.43V376.81H212.82H213.6H459.62V371.23H213.6Z" fill="#BDC4D7"/>
</g>
<path d="M219.6 365.23H69.81V372.68H219.6V365.23Z" fill="#6F7FA9"/>
<path d="M465.62 365.23H218.82V372.68H465.62V365.23Z" fill="#9CA6C3"/>
<path d="M178.97 170.63H130.55C127.551 170.63 125.12 173.061 125.12 176.06V200.23C125.12 203.229 127.551 205.66 130.55 205.66H178.97C181.969 205.66 184.4 203.229 184.4 200.23V176.06C184.4 173.061 181.969 170.63 178.97 170.63Z" fill="white"/>
<path d="M198.19 188.14L180.01 180.47V195.82L198.19 188.14Z" fill="white"/>
<path d="M143.27 191.49C145.12 191.49 146.62 189.99 146.62 188.14C146.62 186.29 145.12 184.79 143.27 184.79C141.42 184.79 139.92 186.29 139.92 188.14C139.92 189.99 141.42 191.49 143.27 191.49Z" fill="#223A7A"/>
<path d="M154.76 191.49C156.61 191.49 158.11 189.99 158.11 188.14C158.11 186.29 156.61 184.79 154.76 184.79C152.91 184.79 151.41 186.29 151.41 188.14C151.41 189.99 152.91 191.49 154.76 191.49Z" fill="#223A7A"/>
<path d="M166.24 191.49C168.09 191.49 169.59 189.99 169.59 188.14C169.59 186.29 168.09 184.79 166.24 184.79C164.39 184.79 162.89 186.29 162.89 188.14C162.89 189.99 164.39 191.49 166.24 191.49Z" fill="#223A7A"/>
<path d="M425.5 96.26H313.7C310.252 96.26 306.946 97.6296 304.508 100.068C302.07 102.506 300.7 105.812 300.7 109.26V162.26C300.7 165.708 302.07 169.014 304.508 171.452C306.946 173.89 310.252 175.26 313.7 175.26H323.7C323.98 180.06 323.29 187.26 319.27 196.36C329.234 191.84 337.659 184.506 343.51 175.26H425.51C428.958 175.26 432.264 173.89 434.702 171.452C437.14 169.014 438.51 165.708 438.51 162.26V109.26C438.51 107.552 438.173 105.861 437.519 104.283C436.866 102.705 435.907 101.271 434.699 100.064C433.491 98.8568 432.056 97.8994 430.478 97.2467C428.9 96.594 427.208 96.2587 425.5 96.26V96.26Z" fill="#60A8FF"/>
<path d="M377.81 121.54H322.36C321.629 121.537 320.928 121.246 320.411 120.729C319.894 120.212 319.603 119.511 319.6 118.78V118.78C319.603 118.049 319.894 117.348 320.411 116.831C320.928 116.314 321.629 116.023 322.36 116.02H377.81C378.541 116.023 379.242 116.314 379.759 116.831C380.276 117.348 380.567 118.049 380.57 118.78V118.78C380.567 119.511 380.276 120.212 379.759 120.729C379.242 121.246 378.541 121.537 377.81 121.54V121.54Z" fill="white"/>
<path d="M417.57 137.61H321.29C320.842 137.61 320.412 137.432 320.095 137.115C319.778 136.798 319.6 136.368 319.6 135.92C319.6 135.472 319.778 135.042 320.095 134.725C320.412 134.408 320.842 134.23 321.29 134.23H417.57C418.018 134.23 418.448 134.408 418.765 134.725C419.082 135.042 419.26 135.472 419.26 135.92C419.26 136.142 419.216 136.362 419.131 136.567C419.046 136.772 418.922 136.958 418.765 137.115C418.608 137.272 418.422 137.396 418.217 137.481C418.012 137.566 417.792 137.61 417.57 137.61Z" fill="#D2E6FF"/>
<path d="M417.57 147H321.29C320.842 147 320.412 146.822 320.095 146.505C319.778 146.188 319.6 145.758 319.6 145.31C319.6 144.862 319.778 144.432 320.095 144.115C320.412 143.798 320.842 143.62 321.29 143.62H417.57C418.018 143.62 418.448 143.798 418.765 144.115C419.082 144.432 419.26 144.862 419.26 145.31C419.26 145.532 419.216 145.752 419.131 145.957C419.046 146.162 418.922 146.348 418.765 146.505C418.608 146.662 418.422 146.786 418.217 146.871C418.012 146.956 417.792 147 417.57 147Z" fill="#D2E6FF"/>
<path d="M396.57 157H321.29C320.842 157 320.412 156.822 320.095 156.505C319.778 156.188 319.6 155.758 319.6 155.31C319.6 154.862 319.778 154.432 320.095 154.115C320.412 153.798 320.842 153.62 321.29 153.62H396.57C397.018 153.62 397.448 153.798 397.765 154.115C398.082 154.432 398.26 154.862 398.26 155.31C398.26 155.758 398.082 156.188 397.765 156.505C397.448 156.822 397.018 157 396.57 157Z" fill="#D2E6FF"/>
<path d="M416.81 121.54H390.36C389.629 121.537 388.928 121.246 388.411 120.729C387.894 120.212 387.603 119.511 387.6 118.78V118.78C387.603 118.049 387.894 117.348 388.411 116.831C388.928 116.314 389.629 116.023 390.36 116.02H416.81C417.541 116.023 418.242 116.314 418.759 116.831C419.276 117.348 419.567 118.049 419.57 118.78V118.78C419.567 119.511 419.276 120.212 418.759 120.729C418.242 121.246 417.541 121.537 416.81 121.54V121.54Z" fill="white"/>
<path d="M350.14 218.99H320.11C319.005 218.99 318.11 219.885 318.11 220.99V241.51C318.11 242.615 319.005 243.51 320.11 243.51H350.14C351.245 243.51 352.14 242.615 352.14 241.51V220.99C352.14 219.885 351.245 218.99 350.14 218.99Z" fill="white"/>
<path d="M335.33 234.91C335.159 234.906 334.994 234.847 334.86 234.74L318.51 221.24C318.434 221.174 318.371 221.094 318.326 221.004C318.281 220.915 318.254 220.817 318.246 220.717C318.239 220.616 318.251 220.516 318.283 220.42C318.314 220.325 318.364 220.236 318.43 220.16C318.496 220.084 318.576 220.021 318.665 219.976C318.755 219.931 318.853 219.904 318.953 219.896C319.054 219.889 319.154 219.901 319.25 219.933C319.345 219.964 319.434 220.014 319.51 220.08L335.36 233.18L350.81 219.73C350.884 219.664 350.971 219.614 351.064 219.582C351.158 219.549 351.257 219.536 351.356 219.542C351.455 219.548 351.552 219.573 351.641 219.617C351.73 219.66 351.809 219.721 351.875 219.795C351.941 219.869 351.991 219.956 352.023 220.049C352.056 220.143 352.069 220.242 352.063 220.341C352.057 220.44 352.032 220.537 351.988 220.626C351.945 220.715 351.884 220.794 351.81 220.86L335.88 234.72C335.806 234.788 335.719 234.839 335.625 234.872C335.53 234.905 335.43 234.918 335.33 234.91Z" fill="#6F7FA9"/>
<path d="M319 242.94C318.853 242.943 318.708 242.901 318.585 242.822C318.461 242.742 318.364 242.627 318.306 242.492C318.248 242.356 318.232 242.207 318.259 242.062C318.287 241.918 318.357 241.785 318.46 241.68L329.89 229.68C330.031 229.54 330.221 229.461 330.42 229.461C330.619 229.461 330.809 229.54 330.95 229.68C331.09 229.821 331.169 230.011 331.169 230.21C331.169 230.409 331.09 230.599 330.95 230.74L319.52 242.74C319.452 242.807 319.37 242.86 319.281 242.894C319.191 242.928 319.096 242.944 319 242.94V242.94Z" fill="#6F7FA9"/>
<path d="M351.27 242.5C351.17 242.501 351.07 242.482 350.978 242.445C350.885 242.407 350.801 242.351 350.73 242.28L339.35 230.87C339.21 230.729 339.131 230.539 339.131 230.34C339.131 230.141 339.21 229.951 339.35 229.81C339.419 229.739 339.501 229.683 339.592 229.645C339.683 229.606 339.781 229.586 339.88 229.586C339.979 229.586 340.077 229.606 340.168 229.645C340.259 229.683 340.341 229.739 340.41 229.81L351.8 241.22C351.941 241.362 352.02 241.555 352.02 241.755C352.02 241.955 351.941 242.148 351.8 242.29C351.73 242.359 351.647 242.413 351.556 242.449C351.465 242.485 351.368 242.502 351.27 242.5V242.5Z" fill="#6F7FA9"/>
<path d="M353.7 228.26C359.239 228.26 363.73 223.769 363.73 218.23C363.73 212.691 359.239 208.2 353.7 208.2C348.161 208.2 343.67 212.691 343.67 218.23C343.67 223.769 348.161 228.26 353.7 228.26Z" fill="#FF5F42"/>
<path d="M351.282 218.2L351.258 217.924C351.562 218.06 351.826 218.236 352.05 218.452C352.274 218.668 352.446 218.904 352.566 219.16C352.686 219.416 352.746 219.68 352.746 219.952C352.746 220.408 352.618 220.828 352.362 221.212C352.114 221.588 351.778 221.892 351.354 222.124C350.93 222.348 350.458 222.46 349.938 222.46C349.418 222.46 348.946 222.348 348.522 222.124C348.098 221.892 347.758 221.588 347.502 221.212C347.254 220.828 347.13 220.408 347.13 219.952C347.13 219.584 347.206 219.268 347.358 219.004C347.518 218.732 347.714 218.504 347.946 218.32C348.186 218.136 348.422 217.984 348.654 217.864L348.558 218.2C348.358 218.12 348.162 218.008 347.97 217.864C347.786 217.712 347.634 217.52 347.514 217.288C347.394 217.056 347.334 216.784 347.334 216.472C347.334 216.024 347.45 215.62 347.682 215.26C347.914 214.892 348.226 214.6 348.618 214.384C349.018 214.168 349.458 214.06 349.938 214.06C350.426 214.06 350.862 214.168 351.246 214.384C351.638 214.6 351.95 214.892 352.182 215.26C352.414 215.62 352.53 216.024 352.53 216.472C352.53 216.816 352.462 217.104 352.326 217.336C352.19 217.568 352.026 217.752 351.834 217.888C351.642 218.024 351.458 218.128 351.282 218.2ZM348.774 216.496C348.774 216.712 348.822 216.904 348.918 217.072C349.022 217.24 349.162 217.376 349.338 217.48C349.514 217.576 349.714 217.624 349.938 217.624C350.162 217.624 350.358 217.576 350.526 217.48C350.702 217.376 350.838 217.24 350.934 217.072C351.038 216.904 351.09 216.712 351.09 216.496C351.09 216.176 350.978 215.912 350.754 215.704C350.538 215.488 350.266 215.38 349.938 215.38C349.602 215.38 349.322 215.488 349.098 215.704C348.882 215.912 348.774 216.176 348.774 216.496ZM349.938 221.14C350.322 221.14 350.646 221.024 350.91 220.792C351.174 220.552 351.306 220.264 351.306 219.928C351.306 219.696 351.246 219.488 351.126 219.304C351.006 219.12 350.842 218.976 350.634 218.872C350.426 218.76 350.194 218.704 349.938 218.704C349.682 218.704 349.45 218.76 349.242 218.872C349.034 218.976 348.87 219.12 348.75 219.304C348.63 219.488 348.57 219.696 348.57 219.928C348.57 220.264 348.702 220.552 348.966 220.792C349.23 221.024 349.554 221.14 349.938 221.14ZM356.116 222.58C355.82 222.58 355.504 222.536 355.168 222.448C354.832 222.352 354.556 222.216 354.34 222.04C354.236 221.952 354.152 221.84 354.088 221.704C354.032 221.56 354.004 221.424 354.004 221.296C354.004 221.16 354.06 221.032 354.172 220.912C354.292 220.792 354.46 220.732 354.676 220.732C354.82 220.732 355 220.808 355.216 220.96C355.344 221.04 355.484 221.112 355.636 221.176C355.788 221.24 355.944 221.272 356.104 221.272C356.488 221.272 356.82 221.204 357.1 221.068C357.38 220.924 357.596 220.728 357.748 220.48C357.9 220.232 357.976 219.94 357.976 219.604C357.976 219.3 357.904 219.04 357.76 218.824C357.624 218.608 357.44 218.44 357.208 218.32C356.984 218.2 356.74 218.14 356.476 218.14C356.228 218.14 356.012 218.18 355.828 218.26C355.644 218.34 355.476 218.424 355.324 218.512C355.172 218.592 355.02 218.632 354.868 218.632C354.604 218.632 354.408 218.576 354.28 218.464C354.152 218.344 354.072 218.204 354.04 218.044C354.008 217.884 354 217.74 354.016 217.612L354.388 214.696C354.42 214.528 354.5 214.392 354.628 214.288C354.764 214.176 354.924 214.12 355.108 214.12H358.576C358.768 214.12 358.928 214.184 359.056 214.312C359.184 214.44 359.248 214.6 359.248 214.792C359.248 214.976 359.184 215.132 359.056 215.26C358.928 215.38 358.768 215.44 358.576 215.44H355.48L355.612 215.332L355.288 217.768L355.132 217.312C355.18 217.232 355.284 217.156 355.444 217.084C355.604 217.012 355.788 216.952 355.996 216.904C356.204 216.848 356.408 216.82 356.608 216.82C357.144 216.82 357.624 216.944 358.048 217.192C358.472 217.432 358.804 217.764 359.044 218.188C359.292 218.604 359.416 219.076 359.416 219.604C359.416 220.204 359.28 220.728 359.008 221.176C358.736 221.624 358.352 221.972 357.856 222.22C357.368 222.46 356.788 222.58 356.116 222.58Z" fill="white"/>
<path d="M454.49 197.36H395.87C393.661 197.36 391.87 199.151 391.87 201.36V210.53C391.87 212.739 393.661 214.53 395.87 214.53H454.49C456.699 214.53 458.49 212.739 458.49 210.53V201.36C458.49 199.151 456.699 197.36 454.49 197.36Z" fill="#223A7A"/>
<path d="M400.1 210.45C399.98 210.455 399.861 210.433 399.752 210.384C399.643 210.336 399.546 210.262 399.47 210.17C399.388 210.074 399.327 209.963 399.289 209.842C399.251 209.722 399.238 209.595 399.25 209.47L399.51 207.24C399.51 207.19 399.51 207.15 399.51 207.13C399.51 207.11 399.43 207.13 399.37 207.13L397.54 208.45C397.444 208.53 397.331 208.587 397.21 208.618C397.089 208.649 396.963 208.653 396.84 208.63C396.714 208.607 396.595 208.557 396.492 208.483C396.388 208.408 396.302 208.312 396.24 208.2C396.162 208.086 396.113 207.954 396.097 207.816C396.081 207.678 396.099 207.539 396.15 207.41C396.2 207.299 396.272 207.2 396.361 207.117C396.451 207.035 396.556 206.971 396.67 206.93L398.72 206C398.78 206 398.81 206 398.81 205.92C398.81 205.84 398.81 205.85 398.72 205.83L396.67 204.91C396.55 204.864 396.441 204.792 396.353 204.699C396.265 204.605 396.199 204.493 396.16 204.37C396.124 204.249 396.112 204.122 396.126 203.997C396.14 203.871 396.178 203.75 396.24 203.64C396.303 203.529 396.39 203.432 396.493 203.356C396.596 203.28 396.715 203.227 396.84 203.2C397.085 203.165 397.335 203.222 397.54 203.36L399.37 204.71C399.43 204.71 399.47 204.71 399.51 204.71C399.55 204.71 399.51 204.65 399.51 204.59L399.25 202.37C399.236 202.244 399.249 202.116 399.289 201.995C399.329 201.874 399.394 201.763 399.48 201.67C399.565 201.575 399.67 201.501 399.788 201.453C399.906 201.404 400.033 201.383 400.16 201.39C400.285 201.388 400.409 201.413 400.523 201.465C400.637 201.517 400.738 201.594 400.819 201.69C400.899 201.785 400.957 201.898 400.989 202.019C401.02 202.14 401.024 202.267 401 202.39L400.75 204.61C400.75 204.67 400.75 204.71 400.75 204.73C400.773 204.743 400.799 204.75 400.825 204.75C400.851 204.75 400.877 204.743 400.9 204.73L402.72 203.41C402.82 203.33 402.936 203.272 403.06 203.24C403.184 203.207 403.313 203.2 403.44 203.22C403.564 203.244 403.68 203.297 403.781 203.373C403.881 203.449 403.963 203.547 404.02 203.66C404.099 203.774 404.15 203.905 404.167 204.043C404.184 204.18 404.168 204.32 404.12 204.45C404.011 204.668 403.826 204.839 403.6 204.93L401.54 205.85C401.49 205.85 401.46 205.85 401.46 205.94C401.46 206.03 401.46 206 401.54 206.02L403.6 206.95C403.721 206.997 403.83 207.069 403.92 207.163C404.009 207.256 404.078 207.368 404.12 207.49C404.16 207.611 404.172 207.74 404.154 207.867C404.137 207.993 404.091 208.114 404.02 208.22C403.964 208.333 403.883 208.43 403.782 208.505C403.681 208.58 403.564 208.63 403.44 208.65C403.316 208.675 403.188 208.674 403.065 208.648C402.941 208.623 402.824 208.572 402.72 208.5L400.9 207.15C400.877 207.137 400.851 207.13 400.825 207.13C400.799 207.13 400.773 207.137 400.75 207.15C400.738 207.166 400.731 207.185 400.731 207.205C400.731 207.225 400.738 207.244 400.75 207.26L401 209.49C401.023 209.615 401.016 209.744 400.98 209.865C400.943 209.987 400.878 210.098 400.79 210.19C400.7 210.28 400.592 210.349 400.473 210.394C400.354 210.439 400.227 210.458 400.1 210.45V210.45Z" fill="white"/>
<path d="M412.22 210.45C412.101 210.455 411.982 210.432 411.872 210.383C411.763 210.335 411.667 210.262 411.59 210.17C411.51 210.074 411.449 209.962 411.413 209.841C411.377 209.721 411.366 209.595 411.38 209.47L411.63 207.24C411.63 207.19 411.63 207.15 411.63 207.13C411.63 207.11 411.55 207.13 411.49 207.13L409.66 208.45C409.564 208.53 409.451 208.588 409.33 208.619C409.209 208.65 409.083 208.654 408.96 208.63C408.708 208.558 408.495 208.389 408.366 208.161C408.236 207.933 408.202 207.663 408.27 207.41C408.379 207.192 408.564 207.021 408.79 206.93L410.85 206C410.9 206 410.93 206 410.93 205.92C410.93 205.84 410.93 205.85 410.85 205.83L408.79 204.91C408.671 204.861 408.565 204.788 408.477 204.695C408.389 204.602 408.322 204.491 408.28 204.37C408.216 204.124 408.248 203.863 408.37 203.64C408.432 203.53 408.517 203.433 408.619 203.358C408.72 203.282 408.836 203.228 408.96 203.2C409.205 203.159 409.457 203.216 409.66 203.36L411.49 204.71C411.55 204.71 411.6 204.71 411.63 204.71C411.66 204.71 411.63 204.65 411.63 204.59L411.38 202.37C411.367 202.244 411.38 202.118 411.418 201.997C411.456 201.877 411.518 201.766 411.6 201.67C411.686 201.577 411.792 201.503 411.909 201.455C412.026 201.406 412.153 201.384 412.28 201.39C412.402 201.386 412.524 201.409 412.636 201.457C412.749 201.506 412.849 201.578 412.93 201.67C413.014 201.764 413.075 201.876 413.108 201.998C413.141 202.119 413.145 202.247 413.12 202.37L412.87 204.59C412.87 204.65 412.87 204.69 412.87 204.71C412.87 204.71 412.95 204.71 413.01 204.71L414.84 203.39C414.94 203.309 415.056 203.251 415.18 203.218C415.304 203.185 415.433 203.179 415.56 203.2C415.683 203.224 415.798 203.277 415.897 203.353C415.995 203.43 416.075 203.528 416.13 203.64C416.212 203.753 416.263 203.884 416.281 204.022C416.298 204.16 416.281 204.3 416.23 204.43C416.121 204.648 415.936 204.819 415.71 204.91L413.66 205.83C413.6 205.83 413.57 205.86 413.57 205.92C413.57 205.92 413.57 205.98 413.66 206L415.71 206.93C415.831 206.976 415.941 207.048 416.031 207.141C416.121 207.235 416.189 207.347 416.23 207.47C416.272 207.591 416.285 207.72 416.268 207.847C416.25 207.974 416.203 208.095 416.13 208.2C416.076 208.312 415.996 208.409 415.897 208.484C415.798 208.559 415.682 208.609 415.56 208.63C415.436 208.656 415.308 208.656 415.184 208.63C415.06 208.604 414.943 208.553 414.84 208.48L413 207.16C412.94 207.16 412.9 207.16 412.86 207.16C412.82 207.16 412.86 207.22 412.86 207.27L413.11 209.5C413.133 209.625 413.126 209.754 413.09 209.875C413.053 209.997 412.988 210.108 412.9 210.2C412.81 210.287 412.703 210.353 412.586 210.396C412.469 210.439 412.344 210.458 412.22 210.45V210.45Z" fill="white"/>
<path d="M424.35 210.45C424.229 210.455 424.109 210.432 423.998 210.384C423.887 210.335 423.789 210.262 423.71 210.17C423.63 210.074 423.569 209.962 423.533 209.841C423.497 209.721 423.486 209.595 423.5 209.47L423.76 207.24C423.76 207.19 423.76 207.15 423.76 207.13C423.739 207.117 423.715 207.11 423.69 207.11C423.665 207.11 423.641 207.117 423.62 207.13L421.79 208.45C421.694 208.53 421.581 208.587 421.46 208.618C421.339 208.649 421.213 208.653 421.09 208.63C420.964 208.607 420.845 208.557 420.742 208.483C420.638 208.408 420.552 208.312 420.49 208.2C420.41 208.086 420.36 207.955 420.344 207.816C420.329 207.678 420.348 207.539 420.4 207.41C420.45 207.299 420.522 207.2 420.611 207.117C420.701 207.035 420.806 206.971 420.92 206.93L422.97 206C423.03 206 423.06 206 423.06 205.92C423.06 205.84 423.06 205.85 422.97 205.83L420.92 204.91C420.8 204.864 420.691 204.792 420.603 204.699C420.515 204.605 420.449 204.493 420.41 204.37C420.374 204.249 420.362 204.122 420.376 203.997C420.39 203.871 420.428 203.75 420.49 203.64C420.553 203.529 420.64 203.432 420.743 203.356C420.846 203.28 420.965 203.227 421.09 203.2C421.335 203.165 421.585 203.222 421.79 203.36L423.62 204.71C423.641 204.723 423.665 204.73 423.69 204.73C423.715 204.73 423.739 204.723 423.76 204.71C423.76 204.71 423.76 204.65 423.76 204.59L423.5 202.37C423.486 202.244 423.499 202.116 423.539 201.995C423.579 201.874 423.644 201.763 423.73 201.67C423.814 201.577 423.918 201.503 424.034 201.455C424.149 201.406 424.275 201.384 424.4 201.39C424.526 201.386 424.651 201.411 424.766 201.462C424.882 201.513 424.984 201.59 425.065 201.686C425.147 201.782 425.206 201.895 425.238 202.017C425.27 202.139 425.274 202.266 425.25 202.39L425 204.61C425 204.67 425 204.71 425 204.73C425.021 204.743 425.045 204.75 425.07 204.75C425.095 204.75 425.119 204.743 425.14 204.73L426.97 203.41C427.07 203.33 427.186 203.272 427.31 203.24C427.434 203.207 427.563 203.2 427.69 203.22C427.814 203.244 427.93 203.297 428.031 203.373C428.131 203.449 428.213 203.547 428.27 203.66C428.349 203.774 428.4 203.905 428.417 204.043C428.434 204.18 428.418 204.32 428.37 204.45C428.261 204.668 428.076 204.839 427.85 204.93L425.79 205.85C425.74 205.85 425.71 205.85 425.71 205.94C425.71 206.03 425.71 206 425.79 206.02L427.85 206.95C427.971 206.997 428.08 207.069 428.17 207.163C428.259 207.256 428.328 207.368 428.37 207.49C428.41 207.611 428.422 207.74 428.404 207.867C428.387 207.993 428.341 208.114 428.27 208.22C428.214 208.333 428.133 208.43 428.032 208.505C427.931 208.58 427.814 208.63 427.69 208.65C427.566 208.675 427.438 208.674 427.315 208.648C427.191 208.623 427.074 208.572 426.97 208.5L425.14 207.15C425.119 207.137 425.095 207.13 425.07 207.13C425.045 207.13 425.021 207.137 425 207.15C424.988 207.166 424.981 207.185 424.981 207.205C424.981 207.225 424.988 207.244 425 207.26L425.25 209.49C425.273 209.615 425.266 209.744 425.23 209.865C425.193 209.987 425.128 210.098 425.04 210.19C424.95 210.28 424.842 210.349 424.723 210.394C424.604 210.439 424.477 210.458 424.35 210.45V210.45Z" fill="white"/>
<path d="M436.47 210.45C436.351 210.455 436.232 210.432 436.122 210.383C436.013 210.335 435.917 210.262 435.84 210.17C435.76 210.074 435.699 209.962 435.663 209.841C435.627 209.721 435.616 209.595 435.63 209.47L435.88 207.24C435.88 207.19 435.88 207.15 435.88 207.13C435.88 207.11 435.8 207.13 435.74 207.13L433.91 208.45C433.814 208.53 433.701 208.588 433.58 208.619C433.459 208.65 433.333 208.654 433.21 208.63C432.958 208.558 432.745 208.389 432.616 208.161C432.486 207.933 432.452 207.663 432.52 207.41C432.632 207.225 432.8 207.081 433 207L435.06 206.07C435.11 206.07 435.14 206.07 435.14 205.99C435.14 205.91 435.14 205.92 435.06 205.9L433 204.98C432.881 204.931 432.775 204.858 432.687 204.765C432.599 204.672 432.532 204.561 432.49 204.44C432.426 204.194 432.458 203.933 432.58 203.71C432.642 203.6 432.727 203.503 432.829 203.428C432.93 203.352 433.046 203.298 433.17 203.27C433.415 203.229 433.667 203.286 433.87 203.43L435.7 204.78C435.76 204.78 435.81 204.78 435.84 204.78C435.87 204.78 435.84 204.72 435.84 204.66L435.59 202.44C435.575 202.314 435.587 202.187 435.625 202.066C435.662 201.946 435.726 201.834 435.81 201.74C435.896 201.647 436.001 201.573 436.119 201.525C436.236 201.476 436.363 201.454 436.49 201.46C436.612 201.456 436.734 201.479 436.846 201.527C436.959 201.576 437.059 201.648 437.14 201.74C437.224 201.834 437.285 201.946 437.318 202.068C437.351 202.189 437.355 202.317 437.33 202.44L437.08 204.66C437.08 204.72 437.08 204.76 437.08 204.78C437.08 204.78 437.16 204.78 437.22 204.78L439.05 203.46C439.15 203.379 439.266 203.321 439.39 203.288C439.514 203.255 439.643 203.249 439.77 203.27C439.892 203.294 440.008 203.347 440.107 203.423C440.205 203.499 440.285 203.598 440.34 203.71C440.419 203.824 440.47 203.955 440.487 204.093C440.504 204.23 440.488 204.37 440.44 204.5C440.331 204.718 440.146 204.889 439.92 204.98L437.87 205.9C437.81 205.9 437.78 205.93 437.78 205.99C437.78 205.99 437.78 206.05 437.87 206.07L440 207C440.121 207.046 440.231 207.118 440.321 207.211C440.411 207.305 440.479 207.417 440.52 207.54C440.562 207.661 440.575 207.79 440.558 207.917C440.54 208.044 440.493 208.165 440.42 208.27C440.366 208.382 440.286 208.479 440.187 208.554C440.088 208.629 439.972 208.679 439.85 208.7C439.726 208.726 439.598 208.726 439.474 208.7C439.35 208.674 439.233 208.623 439.13 208.55L437.3 207.2C437.24 207.2 437.2 207.2 437.16 207.2C437.12 207.2 437.16 207.26 437.16 207.31L437.41 209.54C437.433 209.665 437.426 209.794 437.39 209.915C437.353 210.037 437.288 210.148 437.2 210.24C437.101 210.326 436.984 210.39 436.858 210.426C436.732 210.462 436.6 210.47 436.47 210.45Z" fill="white"/>
<path d="M448.6 210.45C448.479 210.456 448.358 210.433 448.247 210.385C448.136 210.336 448.038 210.263 447.96 210.17C447.88 210.074 447.819 209.962 447.783 209.841C447.747 209.721 447.736 209.595 447.75 209.47L448.01 207.24C448.01 207.19 448.01 207.15 448.01 207.13C447.989 207.117 447.965 207.11 447.94 207.11C447.915 207.11 447.891 207.117 447.87 207.13L446 208.48C445.845 208.584 445.662 208.637 445.475 208.634C445.288 208.631 445.107 208.572 444.955 208.463C444.803 208.355 444.688 208.202 444.624 208.027C444.561 207.851 444.552 207.661 444.6 207.48C444.711 207.26 444.9 207.089 445.13 207L447.18 206.07C447.24 206.07 447.26 206.07 447.26 205.99C447.26 205.91 447.26 205.92 447.18 205.9L445.13 204.98C445.01 204.934 444.901 204.862 444.813 204.769C444.725 204.675 444.659 204.563 444.62 204.44C444.581 204.32 444.568 204.192 444.582 204.066C444.596 203.941 444.636 203.819 444.7 203.71C444.762 203.6 444.847 203.503 444.949 203.428C445.05 203.352 445.166 203.298 445.29 203.27C445.538 203.232 445.792 203.289 446 203.43L447.83 204.78C447.851 204.793 447.875 204.8 447.9 204.8C447.925 204.8 447.949 204.793 447.97 204.78C447.97 204.78 447.97 204.72 447.97 204.66L447.71 202.44C447.696 202.314 447.709 202.186 447.749 202.065C447.789 201.944 447.854 201.833 447.94 201.74C448.024 201.647 448.128 201.573 448.244 201.525C448.359 201.476 448.485 201.454 448.61 201.46C448.736 201.456 448.861 201.481 448.976 201.532C449.092 201.583 449.194 201.66 449.275 201.756C449.357 201.852 449.416 201.965 449.448 202.087C449.48 202.209 449.484 202.336 449.46 202.46L449.2 204.68C449.2 204.74 449.2 204.78 449.2 204.8C449.221 204.813 449.245 204.82 449.27 204.82C449.295 204.82 449.319 204.813 449.34 204.8L451.17 203.48C451.27 203.4 451.386 203.342 451.51 203.31C451.634 203.277 451.763 203.27 451.89 203.29C452.014 203.314 452.13 203.367 452.231 203.443C452.331 203.519 452.413 203.617 452.47 203.73C452.549 203.844 452.6 203.975 452.617 204.113C452.634 204.25 452.618 204.39 452.57 204.52C452.459 204.74 452.27 204.911 452.04 205L449.99 205.92C449.93 205.92 449.91 205.92 449.91 206.01C449.91 206.1 449.91 206.07 449.99 206.09L452.04 207.02C452.163 207.065 452.274 207.137 452.366 207.23C452.458 207.324 452.527 207.436 452.57 207.56C452.61 207.681 452.622 207.81 452.604 207.937C452.587 208.063 452.541 208.184 452.47 208.29C452.414 208.403 452.333 208.5 452.232 208.575C452.131 208.65 452.014 208.7 451.89 208.72C451.766 208.745 451.638 208.744 451.515 208.718C451.391 208.693 451.274 208.642 451.17 208.57L449.34 207.22C449.319 207.207 449.295 207.2 449.27 207.2C449.245 207.2 449.221 207.207 449.2 207.22C449.2 207.22 449.2 207.28 449.2 207.33L449.46 209.56C449.483 209.685 449.476 209.814 449.44 209.935C449.403 210.057 449.338 210.168 449.25 210.26C449.066 210.406 448.833 210.474 448.6 210.45V210.45Z" fill="#67ACFF"/>
</svg>
