<svg width="48" height="61" viewBox="0 0 48 61" fill="none" xmlns="http://www.w3.org/2000/svg">
<path fill-rule="evenodd" clip-rule="evenodd" d="M32.92 44.485L31.5219 44.793V46.652C31.5219 49.839 29.518 52.55 26.722 53.555V58.56C26.722 59.908 25.647 61 24.322 61C22.996 61 21.921 59.908 21.921 58.56V53.555C19.125 52.55 17.1209 49.839 17.1209 46.652V44.929C16.9129 44.887 16.7039 44.843 16.4959 44.797L15.08 44.485C8.16999 42.963 2.70194 37.597 0.961945 30.63C-0.321055 25.496 -0.321055 20.118 0.961945 14.984C2.70194 8.01799 8.16999 2.65101 15.08 1.12901L16.4959 0.816994C21.4409 -0.272006 26.559 -0.272006 31.504 0.816994L32.92 1.12901C39.83 2.65101 45.298 8.01796 47.038 14.985C48.321 20.118 48.321 25.496 47.038 30.63C45.298 37.597 39.83 42.963 32.92 44.485ZM26.722 45.508C26.443 45.53 26.165 45.548 25.886 45.563C24.565 45.635 23.242 45.631 21.921 45.552V46.652C21.921 47.999 22.996 49.092 24.322 49.092C25.647 49.092 26.722 47.999 26.722 46.652V45.508ZM26.801 13.116C27.629 13.789 27.764 15.018 27.101 15.859L23.196 20.821H28.802C29.54 20.821 30.213 21.251 30.533 21.928C30.852 22.604 30.762 23.407 30.301 23.993L23.901 32.126C23.238 32.968 22.03 33.104 21.202 32.431C20.374 31.757 20.2399 30.529 20.9019 29.687L24.807 24.725H19.201C18.463 24.725 17.79 24.295 17.471 23.619C17.151 22.943 17.241 22.14 17.702 21.554L24.102 13.421C24.765 12.579 25.973 12.442 26.801 13.116Z" fill="url(#paint0_linear_2_337)"/>
<defs>
<linearGradient id="paint0_linear_2_337" x1="-5.56954e-05" y1="-0.282005" x2="41.9359" y2="64.635" gradientUnits="userSpaceOnUse">
<stop stop-color="#09C6F9"/>
<stop offset="1" stop-color="#045DE9"/>
</linearGradient>
</defs>
</svg>
